<?xml version="1.0" encoding="UTF-8"?>
<svg id="Layer_1" data-name="Layer 1" xmlns="http://www.w3.org/2000/svg" viewBox="0 0 3040.99 565.2">
  <defs>
    <style>
      .cls-1 {
        fill: #26af51;
      }

      .cls-1, .cls-2, .cls-3, .cls-4, .cls-5 {
        stroke-width: 0px;
      }

      .cls-2 {
        fill: #fff;
      }

      .cls-3 {
        fill: #f7581f;
      }

      .cls-4 {
        fill: #00a3fa;
      }

      .cls-5 {
        fill: #003264;
      }
    </style>
  </defs>
  <g>
    <path class="cls-2" d="m868.95,187.03v59.67h135.95v61.02h-135.95v70.44h157.93v61.47h-223.89V125.56h223.89v61.47h-157.93Z"/>
    <path class="cls-2" d="m1297.89,209.02v328.43h-62.82v-113.52c-17.05,13.91-39.03,21.09-62.36,21.09-62.37,0-113.52-50.7-113.52-120.7s51.15-120.69,113.52-120.69c23.33,0,45.31,7.18,62.36,21.09v-15.7h62.82Zm-62.82,153.89v-77.62c-13.91-15.7-32.3-23.78-52.04-23.78-35,0-60.12,24.68-60.12,62.81s25.13,62.82,60.12,62.82c19.74,0,38.14-8.08,52.04-24.23Z"/>
    <path class="cls-2" d="m1563.95,209.02v230.62h-62.81v-17.05c-18.85,14.81-42.18,22.44-67.3,22.44-52.49,0-87.04-34.55-87.04-95.57v-140.44h62.82v126.97c0,34.1,15.25,51.15,41.73,51.15,17.5,0,35.45-7.63,49.8-24.23v-153.89h62.81Z"/>
    <path class="cls-2" d="m1607.92,143.06c0-20.64,17.05-38.14,39.03-38.14s38.58,17.5,38.58,38.14-17.5,38.59-38.58,38.59-39.03-17.05-39.03-38.59Zm7.18,65.95h62.82v230.62h-62.82v-230.62Z"/>
    <path class="cls-2" d="m1968.21,324.32c0,69.99-51.15,120.7-113.51,120.7-23.33,0-45.32-7.18-62.37-21.09v113.52h-62.82V209.02h62.82v15.7c17.05-13.91,39.03-21.09,62.37-21.09,62.36,0,113.51,50.25,113.51,120.69Zm-63.71,0c0-38.14-25.12-62.81-60.12-62.81-19.74,0-38.13,8.08-52.04,23.78v77.62c13.91,16.15,32.3,24.23,52.04,24.23,35,0,60.12-24.68,60.12-62.82Z"/>
    <path class="cls-2" d="m2276.9,282.6c0,97.81-66.85,157.04-161.52,157.04h-104.09V125.56h104.09c95.12,0,161.52,58.78,161.52,157.04Zm-68.2,0c0-61.47-35.89-94.22-95.12-94.22h-36.34v188.44h36.34c59.22,0,95.12-32.75,95.12-94.22Z"/>
    <path class="cls-2" d="m2547.44,209.02v230.62h-62.81v-15.25c-17.05,13.46-38.59,20.64-61.92,20.64-62.82,0-113.97-50.7-113.97-120.7s51.15-120.69,113.97-120.69c23.33,0,44.87,7.18,61.92,20.64v-15.25h62.81Zm-62.81,154.34v-78.52c-13.91-15.7-32.76-23.33-52.05-23.33-34.55,0-60.12,24.68-60.12,62.81s25.58,62.82,60.12,62.82c19.29,0,38.14-7.63,52.05-23.78Z"/>
    <path class="cls-2" d="m2583.79,413.16l30.06-47.56c25.12,17.5,52.04,26.47,74.93,26.47s33.65-8.08,33.65-19.74c0-8.52-6.73-15.25-27.37-20.19l-39.48-9.42c-46.66-10.77-65.51-31.41-65.51-64.16,0-44.87,35.89-74.93,95.57-74.93,37.69,0,72.68,12.11,96.47,31.86l-30.96,44.87c-23.33-16.15-46.22-24.23-67.75-24.23s-30.96,8.08-30.96,18.4c0,8.52,6.28,13.91,26.92,18.84l39.48,9.42c47.11,11.22,66.4,32.3,66.4,65.95,0,46.21-35.45,76.28-97.81,76.28-39.93,0-78.07-12.12-103.64-31.86Z"/>
    <path class="cls-2" d="m3040.99,300.99v138.64h-62.82v-125.18c0-35.45-16.6-52.94-43.52-52.94-17.5,0-35.45,7.63-50.25,24.23v153.9h-62.82V108.51h62.82v118c18.84-15.25,42.62-22.88,67.3-22.88,52.95,0,89.29,35,89.29,97.36Z"/>
  </g>
  <g>
    <polygon class="cls-1" points="489.47 0 326.32 0 244.74 141.3 244.74 141.3 407.89 141.3 489.47 282.6 571.05 141.3 489.47 0"/>
    <polygon class="cls-4" points="244.74 141.3 81.58 141.3 0 282.6 81.58 423.9 244.74 423.9 163.16 282.6 244.74 141.3"/>
    <polygon class="cls-3" points="489.47 282.6 407.89 423.9 244.74 423.9 326.32 565.2 489.47 565.2 571.05 423.9 489.47 282.6"/>
    <polygon class="cls-2" points="407.89 141.3 244.73 141.3 163.16 282.6 244.73 423.9 407.89 423.89 489.46 282.6 407.89 141.3"/>
    <g>
      <path class="cls-5" d="m163.16,282.6c100.96,0,194.26,53.86,244.74,141.3h0s0-282.6,0-282.6l-244.74,141.3Z"/>
      <polygon class="cls-5" points="163.16 282.6 163.16 282.6 163.16 282.6 163.16 282.6"/>
    </g>
  </g>
</svg>