<svg width="18" height="18" viewBox="0 0 18 18" fill="none" xmlns="http://www.w3.org/2000/svg">
<path d="M8.99917 16.0706C12.9046 16.0706 16.0706 12.9046 16.0706 8.99916C16.0706 5.09372 12.9046 1.92773 8.99917 1.92773C5.09372 1.92773 1.92773 5.09372 1.92773 8.99916C1.92773 12.9046 5.09372 16.0706 8.99917 16.0706Z" stroke="black" stroke-width="1.3" stroke-linecap="round" stroke-linejoin="round"/>
<path d="M9.51953 4.06641C9.73494 4.37095 10.0692 4.59379 10.2252 4.93548C10.5817 5.71541 9.8315 6.55478 9.80179 7.41642C9.78694 7.77296 9.89836 8.12208 10.0469 8.44148C10.2549 8.90202 10.5966 9.36998 11.1017 9.46654C11.5845 9.55567 12.045 9.26599 12.4164 8.94658C12.7878 8.62718 13.1444 8.25578 13.6123 8.1295C13.9169 8.0478 14.2437 8.07008 14.5631 8.07751C14.8825 8.08494 15.2168 8.06265 15.4916 7.89181C15.7665 7.72097 15.9373 7.36442 15.8036 7.07473" stroke="black" stroke-width="1.3" stroke-linecap="round" stroke-linejoin="round"/>
<path d="M5.00977 14.8752C5.09147 14.4072 5.18061 13.9244 5.38859 13.501C5.59658 13.0776 5.96055 12.721 6.39137 12.6542C6.6662 12.6171 6.94846 12.6988 7.2233 12.6616C8.06266 12.5725 8.53062 11.5474 9.27342 11.1092C9.52597 10.9606 9.80823 10.8789 10.0905 10.8789C10.4248 10.8789 10.811 11.0349 10.9076 11.384C10.9967 11.696 10.8259 12.008 10.7144 12.3274C10.6253 12.5799 10.6699 12.8696 10.863 13.0553C11.0264 13.2113 11.2047 13.5158 11.1007 14.0284" stroke="black" stroke-width="1.3" stroke-linecap="round" stroke-linejoin="round"/>
<path d="M4.01562 9.56378C4.29046 9.6232 4.55786 9.72719 4.84013 9.74947C5.12239 9.77176 5.43437 9.69005 5.59035 9.45236C5.68692 9.3038 5.7092 9.1181 5.7092 8.93983C5.71663 8.561 5.68692 8.1896 5.71663 7.81077C5.74634 7.43195 5.86519 7.05312 6.12517 6.78572C6.34801 6.55545 6.67484 6.41432 6.83825 6.13948C7.04624 5.79037 6.91996 5.3224 6.66741 5.003C6.41486 4.6836 6.05832 4.46819 5.73149 4.21564C5.40466 3.96308 5.10011 3.65111 5.0184 3.25" stroke="black" stroke-width="1.3" stroke-linecap="round" stroke-linejoin="round"/>
</svg>
