<svg width="20" height="20" viewBox="0 0 20 20" fill="none" xmlns="http://www.w3.org/2000/svg">
<path d="M18.3335 5.41602H13.3335" stroke="black" stroke-width="1.8" stroke-linecap="round" stroke-linejoin="round"/>
<path d="M4.99984 5.41602H1.6665" stroke="black" stroke-width="1.8" stroke-linecap="round" stroke-linejoin="round"/>
<path d="M11.2498 5.41667C11.2498 5.99353 11.0788 6.55744 10.7583 7.03708C10.4378 7.51672 9.98228 7.89056 9.44933 8.11132C8.91638 8.33207 8.32994 8.38983 7.76416 8.27729C7.19838 8.16475 6.67868 7.88696 6.27078 7.47906C5.86287 7.07116 5.58509 6.55146 5.47255 5.98568C5.36001 5.4199 5.41777 4.83346 5.63852 4.30051C5.85928 3.76756 6.23312 3.31203 6.71276 2.99155C7.1924 2.67106 7.75631 2.5 8.33317 2.5C9.10672 2.5 9.84859 2.80729 10.3956 3.35427C10.9425 3.90125 11.2498 4.64312 11.2498 5.41667Z" stroke="black" stroke-width="1.8" stroke-linecap="round" stroke-linejoin="round"/>
<path d="M18.3333 14.584H15" stroke="black" stroke-width="1.8" stroke-linecap="round" stroke-linejoin="round"/>
<path d="M6.6665 14.584H1.6665" stroke="black" stroke-width="1.8" stroke-linecap="round" stroke-linejoin="round"/>
<path d="M14.5833 14.5827C14.5833 15.1595 14.4123 15.7235 14.0918 16.2031C13.7713 16.6827 13.3158 17.0566 12.7828 17.2773C12.2499 17.4981 11.6634 17.5558 11.0977 17.4433C10.5319 17.3308 10.0122 17.053 9.60427 16.6451C9.19637 16.2372 8.91858 15.7175 8.80604 15.1517C8.6935 14.5859 8.75126 13.9995 8.97202 13.4665C9.19277 12.9336 9.56661 12.4781 10.0463 12.1576C10.5259 11.8371 11.0898 11.666 11.6667 11.666C12.4402 11.666 13.1821 11.9733 13.7291 12.5203C14.276 13.0673 14.5833 13.8091 14.5833 14.5827Z" stroke="black" stroke-width="1.8" stroke-linecap="round" stroke-linejoin="round"/>
</svg>
