<svg width="20" height="20" viewBox="0 0 20 20" fill="none" xmlns="http://www.w3.org/2000/svg">
<g clip-path="url(#clip0_686_344)">
<path d="M12.5999 8.59219C12.5999 9.10642 12.4474 9.6091 12.1617 10.0367C11.876 10.4642 11.47 10.7975 10.9949 10.9943C10.5198 11.1911 9.99702 11.2426 9.49267 11.1422C8.98832 11.0419 8.52504 10.7943 8.16143 10.4307C7.79781 10.067 7.55018 9.60377 7.44986 9.09942C7.34954 8.59507 7.40103 8.0723 7.59782 7.59721C7.7946 7.12212 8.12785 6.71606 8.55542 6.43037C8.98299 6.14467 9.48567 5.99219 9.9999 5.99219C10.6895 5.99219 11.3508 6.26612 11.8384 6.75371C12.326 7.2413 12.5999 7.90262 12.5999 8.59219Z" stroke="black" stroke-width="1.8"/>
<path d="M3.01626 7.07435C4.65793 -0.142316 15.3496 -0.133982 16.9829 7.08268C17.9413 11.316 15.3079 14.8994 12.9996 17.116C12.193 17.894 11.1161 18.3287 9.99543 18.3287C8.8748 18.3287 7.79787 17.894 6.99126 17.116C4.69126 14.8994 2.05793 11.3077 3.01626 7.07435Z" stroke="black" stroke-width="1.8"/>
</g>
<defs>
<clipPath id="clip0_686_344">
<rect width="20" height="20" fill="white"/>
</clipPath>
</defs>
</svg>
