<svg width="20" height="22" viewBox="0 0 20 22" fill="none" xmlns="http://www.w3.org/2000/svg">
<g clip-path="url(#clip0_95_7237)">
<path d="M4.55891 19.2496H0.567969V6.39762H4.55891V19.2496ZM2.56129 4.64449C1.28512 4.64449 0.25 3.58746 0.25 2.31129C0.25 1.6983 0.49351 1.11041 0.926961 0.676961C1.36041 0.24351 1.9483 0 2.56129 0C3.17428 0 3.76217 0.24351 4.19562 0.676961C4.62907 1.11041 4.87258 1.6983 4.87258 2.31129C4.87258 3.58746 3.83703 4.64449 2.56129 4.64449ZM19.4957 19.2496H15.5134V12.9933C15.5134 11.5023 15.4833 9.59019 13.4384 9.59019C11.3634 9.59019 11.0455 11.2101 11.0455 12.8859V19.2496H7.05883V6.39762H10.8865V8.15074H10.9423C11.4752 7.14098 12.7767 6.07535 14.7184 6.07535C18.7575 6.07535 19.5 8.73512 19.5 12.1898V19.2496H19.4957Z" fill="white"/>
</g>
<defs>
<clipPath id="clip0_95_7237">
<rect width="19.25" height="22" fill="white" transform="translate(0.25)"/>
</clipPath>
</defs>
</svg>
