<svg width="18" height="18" viewBox="0 0 18 18" fill="none" xmlns="http://www.w3.org/2000/svg">
<g clip-path="url(#clip0_631_11235)">
<path d="M8.48549 16.0706C4.57838 16.0706 1.41406 12.9063 1.41406 8.99916C1.41406 5.09205 4.57838 1.92773 8.48549 1.92773C12.3926 1.92773 15.5569 5.09205 15.5569 8.99916" stroke="black" stroke-width="1.3" stroke-linecap="round" stroke-linejoin="round"/>
<path d="M8.66376 7.34961V9.48143L7.60156 10.5436" stroke="black" stroke-width="1.3" stroke-linecap="round" stroke-linejoin="round"/>
<path d="M11.3823 6.00648C11.3229 6.3556 11.3155 6.675 11.4492 6.99441C11.6274 7.43266 11.9245 7.75949 12.3702 7.9229C12.5782 8.00461 12.6822 8.12346 12.7193 8.35372C12.7862 8.82169 12.7713 9.28965 12.7045 9.75761C12.6822 9.90617 12.5856 9.9953 12.4519 10.0473C11.7908 10.2999 11.4269 10.7827 11.3377 11.4809C11.3155 11.6369 11.3526 11.778 11.3675 11.9266C11.3823 12.0751 11.3452 12.194 11.2337 12.2905C10.8549 12.6099 10.4241 12.8476 9.96357 13.0259C9.80758 13.0853 9.67387 13.063 9.5476 12.9516C8.86423 12.4094 8.10657 12.4168 7.40834 12.9665C7.29692 13.0482 7.19293 13.0779 7.06666 13.0333C6.58384 12.8699 6.14559 12.6174 5.76676 12.2831C5.65534 12.1866 5.62563 12.0677 5.64049 11.9191C5.75191 11.0575 5.38794 10.4113 4.58572 10.077C4.4223 10.0102 4.32574 9.90617 4.29603 9.72047C4.21432 9.23022 4.2366 8.73998 4.31088 8.25716C4.33317 8.09374 4.44459 8.01946 4.59315 7.96747C5.15767 7.75948 5.49936 7.35095 5.64049 6.77156C5.69249 6.54872 5.68506 6.32588 5.64792 6.10304C5.62563 5.96191 5.66277 5.8505 5.76676 5.75394C6.14559 5.41225 6.58384 5.15969 7.06666 4.98884C7.20036 4.94428 7.32664 4.95914 7.43063 5.0557C8.03972 5.6128 9.00536 5.6128 9.62188 5.0557C9.72587 4.95914 9.85215 4.94428 9.98585 4.98884C10.4687 5.15969 10.8995 5.41224 11.2857 5.7465C11.3749 5.82078 11.412 5.91734 11.412 6.02133L11.3823 6.00648Z" stroke="black" stroke-width="1.3" stroke-linecap="round" stroke-linejoin="round"/>
<path d="M16.5524 8.51725L15.5273 9.46061L14.584 8.43555" stroke="black" stroke-width="1.3" stroke-linecap="round" stroke-linejoin="round"/>
<path d="M8.48633 16.0714C10.5439 16.0714 12.3637 15.1652 13.6859 13.791" stroke="black" stroke-width="1.3" stroke-linecap="round" stroke-linejoin="round"/>
<circle cx="14.7364" cy="11.6173" r="0.605542" fill="black"/>
</g>
<defs>
<clipPath id="clip0_631_11235">
<rect width="18" height="18" fill="white"/>
</clipPath>
</defs>
</svg>
