<svg width="49" height="49" viewBox="0 0 49 49" fill="none" xmlns="http://www.w3.org/2000/svg">
<path d="M24.5 47C36.9264 47 47 36.9264 47 24.5C47 12.0736 36.9264 2 24.5 2C12.0736 2 2 12.0736 2 24.5C2 36.9264 12.0736 47 24.5 47Z" stroke="#F7581F" stroke-width="3" stroke-linecap="round" stroke-linejoin="round"/>
<path d="M41.0451 24.5C41.0451 22.0184 40.5015 19.6785 39.5325 17.5751C37.9017 14.0535 35.0892 11.2174 31.5913 9.563C29.4406 8.54672 27.0299 7.97949 24.501 7.97949" stroke="#F7581F" stroke-width="3" stroke-linecap="round" stroke-linejoin="round"/>
<path d="M24.4996 24.4999C21.0963 24.4999 18.3311 22.6564 18.3311 20.3875C18.3311 18.1186 21.0963 16.2751 24.4996 16.2751C27.903 16.2751 30.6682 18.1186 30.6682 20.3875" stroke="#F7581F" stroke-width="3" stroke-linecap="round" stroke-linejoin="round"/>
<path d="M24.4996 24.4999C27.903 24.4999 30.6682 26.3434 30.6682 28.6123C30.6682 30.8812 27.903 32.7247 24.4996 32.7247C21.0963 32.7247 18.3311 30.8812 18.3311 28.6123" stroke="#F7581F" stroke-width="3" stroke-linecap="round" stroke-linejoin="round"/>
<path d="M24.5 16.2752V13.3682" stroke="#F7581F" stroke-width="3" stroke-linecap="round" stroke-linejoin="round"/>
<path d="M24.5 35.6082V32.7012" stroke="#F7581F" stroke-width="3" stroke-linecap="round" stroke-linejoin="round"/>
</svg>
