<?xml version="1.0" encoding="UTF-8"?>
<svg xmlns="http://www.w3.org/2000/svg" width="28" height="28" viewBox="0 0 28 28" fill="none">
  <path d="M15.7134 13.5011L16.962 12.2526C17.4859 11.7286 17.4859 10.8703 16.962 10.3463C16.438 9.82238 15.5797 9.82238 15.0557 10.3463L14.2754 11.1267" stroke="#F7581F" stroke-width="2" stroke-linecap="round" stroke-linejoin="round"></path>
  <path d="M16.9836 16.0428L18.2321 14.7943C18.7561 14.2703 18.7561 13.412 18.2321 12.888C17.7082 12.3641 16.8498 12.3641 16.3259 12.888L15.8242 13.3897" stroke="#F7581F" stroke-width="2" stroke-linecap="round" stroke-linejoin="round"></path>
  <path d="M11.0311 23.9131L10.2619 24.6823C9.83829 25.1059 9.14713 25.1059 8.72352 24.6823L4.52083 20.4796C4.09722 20.056 4.09722 19.3648 4.52083 18.9412C5.03363 18.4284 5.32347 17.7261 5.33462 17.0015L5.35691 12.9215C5.35691 12.1746 5.55757 11.45 5.93659 10.8034L6.83956 9.26502C7.29661 8.48468 8.36679 8.35091 9.00221 8.98633C9.3032 9.28732 9.44812 9.71093 9.39238 10.1345L9.10254 12.431L10.9531 10.5805L16.8279 4.70561C17.363 4.17052 18.2214 4.17052 18.7565 4.70561C19.2915 5.2407 19.2915 6.09907 18.7565 6.63416L14.2528 11.1378" stroke="#F7581F" stroke-width="2" stroke-linecap="round" stroke-linejoin="round"></path>
  <path d="M16.9504 16.0762L17.4521 15.5746C17.976 15.0507 18.8344 15.0507 19.3583 15.5746C19.8823 16.0985 19.8823 16.9569 19.3583 17.4809L17.8311 19.0081L16.0809 20.7583C15.6015 21.2376 15.0107 21.6055 14.3641 21.8285L13.4277 22.1517" stroke="#F7581F" stroke-width="2" stroke-linecap="round" stroke-linejoin="round"></path>
  <path d="M21.666 13.6906H23.7841" stroke="#F7581F" stroke-width="2" stroke-linecap="round" stroke-linejoin="round"></path>
  <path d="M11.6328 5.11806V3" stroke="#F7581F" stroke-width="2" stroke-linecap="round" stroke-linejoin="round"></path>
</svg>
