<?xml version="1.0" encoding="UTF-8"?>
<svg xmlns="http://www.w3.org/2000/svg" width="28" height="28" viewBox="0 0 28 28" fill="none">
  <path d="M18.6273 5H16.8301" stroke="#F7581F" stroke-width="2" stroke-linecap="round" stroke-linejoin="round"></path>
  <path d="M4.0385 16.2795H25.3368C25.3368 16.2795 25.3368 23 16.3312 23H8.16983C7.51692 23 6.87528 22.8199 6.33494 22.4597C5.27678 21.7505 3.65576 20.2645 3.02536 17.5291C2.87902 16.8874 3.38559 16.2795 4.0385 16.2795Z" stroke="#F7581F" stroke-width="2" stroke-linecap="round" stroke-linejoin="round"></path>
  <path d="M5.63709 14.0056L4.60145 7.8255C4.55642 7.52156 4.78156 7.25139 5.0855 7.25139H6.00858C6.49263 7.25139 6.95417 7.44276 7.29188 7.78047L8.42884 8.91743C8.80033 9.28891 9.30689 9.5028 9.83597 9.5028H14.1474C14.7778 9.5028 15.3294 9.09754 15.532 8.50092L15.9035 7.37522C16.1399 6.65477 16.9279 6.26077 17.6596 6.49717C24.29 8.66978 24.9654 13.9944 24.9654 13.9944H18.5714" stroke="#F7581F" stroke-width="2" stroke-linecap="round" stroke-linejoin="round"></path>
  <path d="M14.9133 8.90619L13.4273 5.93433C13.1459 5.36023 12.5605 5 11.9189 5H10.7031" stroke="#F7581F" stroke-width="2" stroke-linecap="round" stroke-linejoin="round"></path>
  <path d="M3.94922 19.6342H11.8291" stroke="#F7581F" stroke-width="2" stroke-linecap="round" stroke-linejoin="round"></path>
</svg>
