<?xml version="1.0" encoding="UTF-8"?>
<svg xmlns="http://www.w3.org/2000/svg" width="28" height="28" viewBox="0 0 28 28" fill="none">
  <g clip-path="url(#clip0_144_6800)">
    <path d="M15.4273 7.72902L15.8003 8.88424C15.9567 9.3776 16.426 9.71454 16.9435 9.71454H18.1468C19.6269 9.71454 20.2406 11.6038 19.0493 12.4822L18.0746 13.1922C17.6534 13.5051 17.4729 14.0465 17.6414 14.5399L18.0145 15.6951C18.4717 17.103 16.8592 18.2703 15.6679 17.4039L14.6932 16.6939C14.2721 16.381 13.6945 16.381 13.2733 16.6939L12.2986 17.4039C11.0953 18.2703 9.49482 17.103 9.95209 15.6951L10.3251 14.5399C10.4816 14.0465 10.3131 13.493 9.89193 13.1922L8.91722 12.4822C7.71388 11.6158 8.33962 9.71454 9.81972 9.71454H11.0231C11.5405 9.71454 12.0098 9.3776 12.1662 8.88424L12.5393 7.72902C12.9965 6.32112 14.982 6.32112 15.4393 7.72902H15.4273Z" stroke="#F7581F" stroke-width="2" stroke-linecap="round" stroke-linejoin="round"></path>
    <path d="M21.1912 21.5194H21.7206C23.7182 21.5194 25.3306 19.9069 25.3306 17.9093V6.61001C25.3306 4.61247 23.7182 3 21.7206 3H6.20962C4.21208 3 2.59961 4.61247 2.59961 6.61001V17.9093C2.59961 19.9069 4.21208 21.5194 6.20962 21.5194H9.96403C10.5537 21.5194 11.1072 21.8322 11.396 22.3497L12.4068 24.1065C13.0927 25.2978 14.8255 25.2978 15.5114 24.1065L16.5222 22.3497C16.8231 21.8322 17.3646 21.5194 17.9542 21.5194" stroke="#F7581F" stroke-width="2" stroke-linecap="round" stroke-linejoin="round"></path>
  </g>
  <defs>
    <clipPath id="clip0_144_6800">
      <rect width="28" height="28" fill="white"></rect>
    </clipPath>
  </defs>
</svg>
