<?xml version="1.0" encoding="UTF-8"?>
<svg xmlns="http://www.w3.org/2000/svg" width="28" height="28" viewBox="0 0 28 28" fill="none">
  <path d="M21.9344 5.87598C21.7756 6.81645 21.7634 7.69585 22.1176 8.55083C22.6062 9.74779 23.4123 10.615 24.6215 11.0791C25.1955 11.299 25.4764 11.6287 25.5619 12.2394C25.7452 13.5219 25.7085 14.7799 25.5131 16.0502C25.452 16.4655 25.1955 16.6853 24.8169 16.8319C23.0092 17.5036 22.0321 18.8228 21.7878 20.7281C21.739 21.1434 21.8245 21.5342 21.8733 21.9373C21.91 22.3404 21.8123 22.6579 21.5069 22.9266C20.4809 23.7938 19.3206 24.4412 18.0626 24.9175C17.6473 25.0763 17.2809 25.003 16.9267 24.7221C15.0702 23.2564 13.0182 23.2686 11.1251 24.7587C10.8319 24.9908 10.5388 25.0519 10.1968 24.9297C8.87769 24.49 7.70515 23.7938 6.65475 22.89C6.3494 22.6213 6.26391 22.3037 6.31276 21.9007C6.61811 19.5556 5.61657 17.809 3.44248 16.893C2.99057 16.6975 2.73408 16.4166 2.64858 15.9281C2.41651 14.5967 2.47758 13.2776 2.68522 11.9463C2.7585 11.5066 3.05164 11.299 3.44248 11.1524C4.96923 10.5783 5.89749 9.4913 6.27612 7.9157C6.42269 7.31722 6.39826 6.69431 6.30055 6.09583C6.23948 5.70498 6.3494 5.39963 6.63032 5.14314C7.65629 4.21488 8.84105 3.5309 10.1479 3.06677C10.5021 2.94463 10.8441 2.98127 11.1373 3.24998C12.7984 4.77672 15.3999 4.76451 17.0732 3.24998C17.3664 2.99348 17.7084 2.94463 18.0626 3.06677C19.3695 3.5309 20.542 4.21488 21.5924 5.11871C21.8367 5.32635 21.9466 5.59505 21.9344 5.85155V5.87598Z" stroke="#F7581F" stroke-width="2" stroke-linecap="round" stroke-linejoin="round"></path>
  <path d="M17.7327 8.81934H10.4532C9.44135 8.81934 8.62109 9.63959 8.62109 10.6514C8.62109 11.6633 9.44135 12.4835 10.4532 12.4835H17.7327C18.7445 12.4835 19.5648 11.6633 19.5648 10.6514C19.5648 9.63959 18.7445 8.81934 17.7327 8.81934Z" stroke="#F7581F" stroke-width="2" stroke-linecap="round" stroke-linejoin="round"></path>
  <path d="M17.7327 15.5371H10.4532C9.44135 15.5371 8.62109 16.3574 8.62109 17.3692C8.62109 18.381 9.44135 19.2013 10.4532 19.2013H17.7327C18.7445 19.2013 19.5648 18.381 19.5648 17.3692C19.5648 16.3574 18.7445 15.5371 17.7327 15.5371Z" stroke="#F7581F" stroke-width="2" stroke-linecap="round" stroke-linejoin="round"></path>
  <ellipse cx="10.4291" cy="10.6517" rx="0.610697" ry="0.610697" fill="#F7581F"></ellipse>
  <ellipse cx="10.4291" cy="17.3695" rx="0.610697" ry="0.610697" fill="#F7581F"></ellipse>
</svg>
