<?xml version="1.0" encoding="UTF-8"?>
<svg xmlns="http://www.w3.org/2000/svg" width="28" height="28" viewBox="0 0 28 28" fill="none">
  <path d="M11.0742 9.64586C11.0742 8.10434 12.3221 6.85645 13.8636 6.85645C15.4051 6.85645 16.653 8.10434 16.653 9.64586C16.653 11.1874 15.4051 12.4353 13.8636 12.4353" stroke="#F7581F" stroke-width="2" stroke-linecap="round" stroke-linejoin="round"></path>
  <path d="M18.6222 4.71562C18.5243 5.29063 18.5121 5.81671 18.7323 6.34278C19.0259 7.0646 19.5153 7.60291 20.2493 7.87206C20.5919 8.00664 20.7632 8.20238 20.8243 8.58164C20.9344 9.3524 20.91 10.1232 20.7999 10.8939C20.7632 11.1386 20.6041 11.2854 20.3839 11.3711C19.295 11.787 18.6956 12.5822 18.5488 13.7323C18.5121 13.9892 18.5732 14.2216 18.5977 14.4663C18.6222 14.711 18.561 14.9068 18.3775 15.0658C17.7535 15.5919 17.0439 15.9834 16.2854 16.277C16.0285 16.3749 15.8083 16.3382 15.6003 16.1546C14.4748 15.2615 13.2269 15.2738 12.0768 16.1791C11.8933 16.3137 11.7221 16.3626 11.5141 16.2892C10.7188 16.0201 9.99702 15.6041 9.37308 15.0536C9.18956 14.8945 9.14062 14.6988 9.16509 14.4541C9.34861 13.0349 8.74913 11.9705 7.42783 11.42C7.15868 11.3099 6.99963 11.1386 6.95069 10.8327C6.81612 10.0253 6.85282 9.21783 6.97516 8.4226C7.01186 8.15345 7.19538 8.0311 7.44006 7.94546C8.36987 7.6029 8.93264 6.93003 9.16509 5.97575C9.25073 5.60873 9.2385 5.2417 9.17733 4.87467C9.14063 4.64222 9.2018 4.4587 9.37308 4.29966C9.99702 3.73688 10.7188 3.32092 11.5141 3.03953C11.7343 2.96613 11.9423 2.9906 12.1135 3.14964C13.1168 4.06721 14.7072 4.06721 15.7226 3.14964C15.8939 2.9906 16.1019 2.96613 16.3221 3.03953C17.1173 3.32092 17.8269 3.73689 18.4631 4.28743C18.6099 4.40977 18.6711 4.56881 18.6711 4.74009L18.6222 4.71562Z" stroke="#F7581F" stroke-width="2" stroke-linecap="round" stroke-linejoin="round"></path>
  <path d="M24.728 19.9717C24.728 22.7489 19.8588 25 13.864 25C7.86923 25 3 22.7489 3 19.9717C3 16.2892 6.20537 15.812 10.6219 15.1759C11.6496 15.0291 12.7385 21.3297 13.864 21.3297C15.1364 21.3297 16.372 15.0413 17.5098 15.237C21.7184 15.9344 24.728 16.436 24.728 19.9717Z" stroke="#F7581F" stroke-width="2" stroke-linecap="round" stroke-linejoin="round"></path>
</svg>
