<?xml version="1.0" encoding="UTF-8"?>
<svg xmlns="http://www.w3.org/2000/svg" width="28" height="28" viewBox="0 0 28 28" fill="none">
  <g clip-path="url(#clip0_167_2113)">
    <path d="M7.15456 17.6278C5.40904 17.6278 4 16.2187 4 14.4732V7.15457C4 5.40904 5.40904 4 7.15456 4H14.4731C16.2187 4 17.6277 5.40904 17.6277 7.15457V14.4732C17.6277 16.2187 16.2187 17.6278 14.4731 17.6278H10.4037" stroke="#F7581F" stroke-width="2" stroke-linecap="round" stroke-linejoin="round"></path>
    <path d="M20.8677 10.3722C22.6132 10.3722 24.0222 11.7813 24.0222 13.5268V20.8454C24.0222 22.5909 22.6132 24 20.8677 24H13.5491C11.8036 24 10.3945 22.5909 10.3945 20.8454V13.5268C10.3945 11.7813 11.8036 10.3722 13.5491 10.3722H17.6185" stroke="#F7581F" stroke-width="2" stroke-linecap="round" stroke-linejoin="round"></path>
    <path d="M12.623 14.021H15.3991" stroke="#F7581F" stroke-width="2" stroke-linecap="round" stroke-linejoin="round"></path>
  </g>
  <defs>
    <clipPath id="clip0_167_2113">
      <rect width="28" height="28" fill="white"></rect>
    </clipPath>
  </defs>
</svg>
