<?xml version="1.0" encoding="UTF-8"?>
<svg xmlns="http://www.w3.org/2000/svg" width="28" height="28" viewBox="0 0 28 28" fill="none">
  <path d="M15.054 8.06572L15.3433 8.96825C15.4937 9.44266 15.945 9.76665 16.4425 9.76665H17.3913C18.4906 9.76665 18.9534 11.1783 18.0624 11.8263L17.2872 12.3817C16.8822 12.6825 16.7086 13.2032 16.8706 13.6776L17.1599 14.5802C17.4955 15.6331 16.3036 16.5009 15.4011 15.853L14.6259 15.2976C14.2209 14.9967 13.6655 14.9967 13.2605 15.2976L12.4852 15.853C11.5943 16.5009 10.3909 15.6331 10.7264 14.5802L11.0157 13.6776C11.1661 13.2032 11.0041 12.671 10.5992 12.3817L9.82391 11.8263C8.93295 11.1783 9.38422 9.76665 10.495 9.76665H11.4438C11.9414 9.76665 12.3927 9.44266 12.5431 8.96825L12.8324 8.06572C13.1679 7.01276 14.6606 7.01276 14.9961 8.06572H15.054Z" stroke="#F7581F" stroke-width="2" stroke-linecap="round" stroke-linejoin="round"></path>
  <path d="M7.38289 18.063C6.07537 16.6514 5.20754 14.8116 5.03398 12.7404C4.60585 7.79957 8.27385 3.44889 13.2031 3.03234C18.1323 2.61578 22.4946 6.2722 22.9111 11.2014C23.3277 16.1307 19.6712 20.4929 14.742 20.9095C13.5155 21.0136 12.3237 20.8632 11.2244 20.5161" stroke="#F7581F" stroke-width="2" stroke-linecap="round" stroke-linejoin="round"></path>
  <path d="M9.01562 19.787V23.6401C9.01562 24.8435 10.4736 25.4452 11.3183 24.6005L13.0076 22.9111C13.5399 22.3789 14.3846 22.3789 14.9168 22.9111L16.6062 24.6005C17.4624 25.4568 18.9088 24.8435 18.9088 23.6401V19.787" stroke="#F7581F" stroke-width="2" stroke-linecap="round" stroke-linejoin="round"></path>
</svg>
