<?xml version="1.0" encoding="UTF-8"?>
<svg xmlns="http://www.w3.org/2000/svg" width="28" height="28" viewBox="0 0 28 28" fill="none">
  <path d="M16.0347 4.30005H21.1333C22.904 4.30005 24.3333 6.08672 24.3333 8.30005V20.3C24.3333 22.5134 22.904 24.3 21.1333 24.3H6.2C4.42933 24.3 3 22.5134 3 20.3V18.9667" stroke="#F7581F" stroke-width="2" stroke-linecap="round" stroke-linejoin="round"></path>
  <path d="M3 13.1668V7.3001C3 5.52943 4.42933 4.1001 6.2 4.1001H11.2987" stroke="#F7581F" stroke-width="2" stroke-linecap="round" stroke-linejoin="round"></path>
  <path d="M9.69855 13.7987C10.6647 13.7987 11.4479 13.0155 11.4479 12.0494C11.4479 11.0833 10.6647 10.3 9.69855 10.3C8.73242 10.3 7.94922 11.0833 7.94922 12.0494C7.94922 13.0155 8.73242 13.7987 9.69855 13.7987Z" stroke="#F7581F" stroke-width="2" stroke-linecap="round" stroke-linejoin="round"></path>
  <path d="M9.69789 18.5879C11.6301 18.5879 13.1966 17.8716 13.1966 16.9879C13.1966 16.1043 11.6301 15.3879 9.69789 15.3879C7.76563 15.3879 6.19922 16.1043 6.19922 16.9879C6.19922 17.8716 7.76563 18.5879 9.69789 18.5879Z" stroke="#F7581F" stroke-width="2" stroke-linecap="round" stroke-linejoin="round"></path>
  <path d="M16.8652 12.0174L18.0919 13.2441L20.5346 10.7908" stroke="#F7581F" stroke-width="2" stroke-linecap="round" stroke-linejoin="round"></path>
  <path d="M16.8652 16.8708L18.0919 18.0974L20.5346 15.6548" stroke="#F7581F" stroke-width="2" stroke-linecap="round" stroke-linejoin="round"></path>
  <path d="M14.4348 2.5H12.8988C12.0152 2.5 11.2988 3.21634 11.2988 4.1V5.16667C11.2988 6.05032 12.0152 6.76667 12.8988 6.76667H14.4348C15.3185 6.76667 16.0348 6.05032 16.0348 5.16667V4.1C16.0348 3.21634 15.3185 2.5 14.4348 2.5Z" stroke="#F7581F" stroke-width="2" stroke-linecap="round" stroke-linejoin="round"></path>
</svg>
