<svg width="18" height="18" viewBox="0 0 18 18" fill="none" xmlns="http://www.w3.org/2000/svg">
<g clip-path="url(#clip0_649_5505)">
<path d="M16.5 9C16.5 10.4834 16.0601 11.9334 15.236 13.1668C14.4119 14.4001 13.2406 15.3614 11.8701 15.9291C10.4997 16.4968 8.99168 16.6453 7.53683 16.3559C6.08197 16.0665 4.7456 15.3522 3.6967 14.3033C2.64781 13.2544 1.9335 11.918 1.64411 10.4632C1.35472 9.00832 1.50325 7.50032 2.07091 6.12987C2.63856 4.75943 3.59986 3.58809 4.83323 2.76398C6.0666 1.93987 7.51664 1.5 9 1.5C10.9891 1.5 12.8968 2.29018 14.3033 3.6967C15.7098 5.10322 16.5 7.01088 16.5 9Z" stroke="black" stroke-width="1.5" stroke-linecap="round" stroke-linejoin="round"/>
<path d="M6.00115 2.25H6.75115C5.28868 6.63118 5.28868 11.3688 6.75115 15.75H6.00115" stroke="black" stroke-width="1.5" stroke-linecap="round" stroke-linejoin="round"/>
<path d="M11.25 2.25C12.7125 6.63118 12.7125 11.3688 11.25 15.75" stroke="black" stroke-width="1.5" stroke-linecap="round" stroke-linejoin="round"/>
<path d="M2.25 12V11.25C6.63118 12.7125 11.3688 12.7125 15.75 11.25V12" stroke="black" stroke-width="1.5" stroke-linecap="round" stroke-linejoin="round"/>
<path d="M2.25 6.75115C6.63118 5.28868 11.3688 5.28868 15.75 6.75115" stroke="black" stroke-width="1.5" stroke-linecap="round" stroke-linejoin="round"/>
</g>
<defs>
<clipPath id="clip0_649_5505">
<rect width="18" height="18" fill="white"/>
</clipPath>
</defs>
</svg>
