<svg width="18" height="18" viewBox="0 0 18 18" fill="none" xmlns="http://www.w3.org/2000/svg">
<path d="M14.5492 2.48682H3.35526C1.91642 2.48682 0.75 3.65323 0.75 5.09208V14.6447C0.75 16.0836 1.91642 17.25 3.35526 17.25H14.5492C15.9881 17.25 17.1545 16.0836 17.1545 14.6447V5.09208C17.1545 3.65323 15.9881 2.48682 14.5492 2.48682Z" stroke="#F7581F" stroke-width="1.5" stroke-linecap="round" stroke-linejoin="round"/>
<path d="M5.36087 4.22368C4.4056 4.22368 3.62402 3.4421 3.62402 2.48684C3.62402 1.53158 4.4056 0.75 5.36087 0.75C6.31613 0.75 7.09771 1.53158 7.09771 2.48684" stroke="#F7581F" stroke-width="1.5" stroke-linecap="round" stroke-linejoin="round"/>
<path d="M12.4214 4.22368C11.4661 4.22368 10.6846 3.4421 10.6846 2.48684C10.6846 1.53158 11.4661 0.75 12.4214 0.75C13.3767 0.75 14.1583 1.53158 14.1583 2.48684" stroke="#F7581F" stroke-width="1.5" stroke-linecap="round" stroke-linejoin="round"/>
<path d="M6.97754 10.3028C6.97754 9.20855 7.86333 8.32275 8.95754 8.32275C10.0518 8.32275 10.9375 9.20855 10.9375 10.3028C10.9375 11.397 10.0518 12.2828 8.95754 12.2828" stroke="#F7581F" stroke-width="1.5" stroke-linecap="round" stroke-linejoin="round"/>
<path d="M12.3356 6.80276C12.2662 7.21091 12.2575 7.58434 12.4138 7.95776C12.6222 8.47013 12.9696 8.85223 13.4906 9.04328C13.7338 9.13881 13.8554 9.27776 13.8988 9.54697C13.977 10.0941 13.9596 10.6412 13.8814 11.1883C13.8554 11.362 13.7425 11.4662 13.5862 11.527C12.8133 11.8222 12.3877 12.3867 12.2835 13.203C12.2575 13.3854 12.3009 13.5504 12.3183 13.7241C12.3356 13.8978 12.2922 14.0367 12.162 14.1496C11.7191 14.523 11.2154 14.8009 10.677 15.0093C10.4946 15.0788 10.3383 15.0528 10.1906 14.9225C9.39169 14.2886 8.5059 14.2972 7.68958 14.9399C7.55932 15.0354 7.43774 15.0701 7.29011 15.018C6.72563 14.827 6.21327 14.5317 5.77037 14.1409C5.64011 14.028 5.60537 13.8891 5.62274 13.7154C5.753 12.708 5.32748 11.9525 4.38958 11.5617C4.19853 11.4835 4.08563 11.362 4.05089 11.1449C3.95537 10.5717 3.98142 9.99855 4.06827 9.43408C4.09432 9.24303 4.22458 9.15618 4.39826 9.09539C5.05826 8.85224 5.45774 8.3746 5.62274 7.69724C5.68353 7.43671 5.67485 7.17618 5.63143 6.91566C5.60537 6.75066 5.64879 6.62039 5.77037 6.5075C6.21327 6.10802 6.72563 5.81276 7.29011 5.61302C7.44642 5.56092 7.59405 5.57828 7.71563 5.69118C8.42774 6.34249 9.55669 6.34249 10.2775 5.69118C10.3991 5.57828 10.5467 5.56092 10.703 5.61302C11.2675 5.81276 11.7712 6.10802 12.2227 6.49881C12.327 6.58565 12.3704 6.69855 12.3704 6.82013L12.3356 6.80276Z" stroke="#F7581F" stroke-width="1.5" stroke-linecap="round" stroke-linejoin="round"/>
</svg>
