<svg width="13" height="20" viewBox="0 0 13 20" fill="none" xmlns="http://www.w3.org/2000/svg">
<path d="M1.5 13.8634V3.51789C1.5 2.32518 2.468 1.35718 3.66072 1.35718H9.71072C10.9034 1.35718 11.8714 2.32518 11.8714 3.51789V16.4822C11.8714 17.6749 10.9034 18.6429 9.71072 18.6429H3.66072C2.468 18.6429 1.5 17.6749 1.5 16.4822V15.929" stroke="#F7581F" stroke-width="1.5" stroke-linecap="round" stroke-linejoin="round"/>
<path d="M4.95703 16.9143H8.41418" stroke="#F7581F" stroke-width="1.5" stroke-linecap="round" stroke-linejoin="round"/>
<path d="M4.95703 3.4314H6.6856" stroke="#F7581F" stroke-width="1.5" stroke-linecap="round" stroke-linejoin="round"/>
<ellipse cx="0.691429" cy="0.691429" rx="0.691429" ry="0.691429" transform="matrix(-1 0 0 1 9.10547 2.73999)" fill="#F7581F"/>
<path d="M5.19922 10L6.18451 10.994L8.17236 9.0061" stroke="#F7581F" stroke-width="1.5" stroke-linecap="round" stroke-linejoin="round"/>
<path d="M10.1173 10.0001C10.1173 11.8929 8.57889 13.4313 6.6861 13.4313C5.5971 13.4313 4.6291 12.9213 3.99817 12.1348C3.53145 11.5471 3.25488 10.8039 3.25488 10.0001C3.25488 8.10728 4.79331 6.56885 6.6861 6.56885C8.57889 6.56885 10.1173 8.10728 10.1173 10.0001Z" stroke="#F7581F" stroke-width="1.5" stroke-linecap="round" stroke-linejoin="round"/>
</svg>
