<svg width="13" height="20" viewBox="0 0 13 20" fill="none" xmlns="http://www.w3.org/2000/svg">
<path d="M10.1429 4.81421H3.22857C2.27391 4.81421 1.5 5.58812 1.5 6.54278V16.9142C1.5 17.8689 2.27391 18.6428 3.22857 18.6428H10.1429C11.0975 18.6428 11.8714 17.8689 11.8714 16.9142V6.54278C11.8714 5.58812 11.0975 4.81421 10.1429 4.81421Z" stroke="#F7581F" stroke-width="1.5" stroke-linecap="round" stroke-linejoin="round"/>
<path d="M8.83821 6.96631H4.52542C4.04809 6.96631 3.66113 7.35326 3.66113 7.83059V9.13567C3.66113 9.613 4.04809 9.99995 4.52542 9.99995H8.83821C9.31554 9.99995 9.70249 9.613 9.70249 9.13567V7.83059C9.70249 7.35326 9.31554 6.96631 8.83821 6.96631Z" stroke="#F7581F" stroke-width="1.5" stroke-linecap="round" stroke-linejoin="round"/>
<path d="M3.66113 12.1348H4.30935" stroke="#F7581F" stroke-width="1.5" stroke-linecap="round" stroke-linejoin="round"/>
<path d="M6.35742 12.1348H7.00564" stroke="#F7581F" stroke-width="1.5" stroke-linecap="round" stroke-linejoin="round"/>
<path d="M9.05469 12.1348H9.7029" stroke="#F7581F" stroke-width="1.5" stroke-linecap="round" stroke-linejoin="round"/>
<path d="M3.66113 14.2695H4.30935" stroke="#F7581F" stroke-width="1.5" stroke-linecap="round" stroke-linejoin="round"/>
<path d="M6.35742 14.2695H7.00564" stroke="#F7581F" stroke-width="1.5" stroke-linecap="round" stroke-linejoin="round"/>
<path d="M9.05469 14.2695H9.7029" stroke="#F7581F" stroke-width="1.5" stroke-linecap="round" stroke-linejoin="round"/>
<path d="M6.35742 16.4043H7.00564" stroke="#F7581F" stroke-width="1.5" stroke-linecap="round" stroke-linejoin="round"/>
<path d="M3.22852 4.81432V1.35718H10.1342V4.81432" stroke="#F7581F" stroke-width="1.5" stroke-linecap="round" stroke-linejoin="round"/>
</svg>
