<svg width="20" height="16" viewBox="0 0 20 16" fill="none" xmlns="http://www.w3.org/2000/svg">
<path d="M18.8525 7.10963V12.0072C18.8525 13.4854 17.6593 14.6787 16.1811 14.6787H3.7144C2.23621 14.6787 1.04297 13.4854 1.04297 12.0072V3.99296C1.04297 2.51477 2.23621 1.32153 3.7144 1.32153H16.1811C17.6593 1.32153 18.8525 2.51477 18.8525 3.99296V4.88344H17.5079" stroke="#F7581F" stroke-width="1.5" stroke-linecap="round" stroke-linejoin="round"/>
<path d="M1.05176 4.88354H7.27619" stroke="#F7581F" stroke-width="1.5" stroke-linecap="round" stroke-linejoin="round"/>
<path d="M3.71484 11.562H6.38628" stroke="#F7581F" stroke-width="1.5" stroke-linecap="round" stroke-linejoin="round"/>
<path d="M10.8379 8.00001L11.8619 9.02405L13.9011 6.98486" stroke="#F7581F" stroke-width="1.5" stroke-linecap="round" stroke-linejoin="round"/>
<path d="M15.3532 5.4533C14.3469 5.12382 13.5188 4.63406 12.9845 4.26896C12.6016 4.00182 12.094 4.00182 11.7111 4.26896C11.1857 4.63406 10.3576 5.11491 9.34244 5.4533C8.83487 5.62249 8.50539 6.10334 8.54992 6.62872C8.67458 7.99115 9.2801 10.4845 11.9337 11.838C12.192 11.9716 12.5036 11.9716 12.7619 11.838C15.4155 10.4845 16.021 7.99115 16.1457 6.62872C16.1902 6.10334 15.8607 5.61358 15.3532 5.4533Z" stroke="#F7581F" stroke-width="1.5" stroke-linecap="round" stroke-linejoin="round"/>
</svg>
