<svg width="21" height="20" viewBox="0 0 21 20" fill="none" xmlns="http://www.w3.org/2000/svg">
<path d="M10.3714 18.6429C5.59601 18.6429 1.72852 14.7754 1.72852 10C1.72852 5.22468 5.59601 1.35718 10.3714 1.35718C15.1467 1.35718 19.0142 5.22468 19.0142 10" stroke="#F7581F" stroke-width="1.5" stroke-linecap="round" stroke-linejoin="round"/>
<path d="M10.5893 7.98462V10.5902L9.29102 11.8884" stroke="#F7581F" stroke-width="1.5" stroke-linecap="round" stroke-linejoin="round"/>
<path d="M13.9129 6.34123C13.8403 6.76793 13.8312 7.15831 13.9946 7.54869C14.2125 8.08433 14.5756 8.48379 15.1204 8.68352C15.3746 8.78338 15.5017 8.92864 15.5471 9.21008C15.6288 9.78203 15.6106 10.354 15.5289 10.9259C15.5017 11.1075 15.3836 11.2165 15.2202 11.28C14.4122 11.5887 13.9674 12.1788 13.8584 13.0322C13.8312 13.2228 13.8766 13.3953 13.8947 13.5769C13.9129 13.7585 13.8675 13.9037 13.7313 14.0217C13.2683 14.4121 12.7418 14.7026 12.1789 14.9205C11.9882 14.9932 11.8248 14.9659 11.6705 14.8297C10.8352 14.167 9.90923 14.1761 9.05584 14.8479C8.91966 14.9478 8.79256 14.9841 8.63822 14.9296C8.04811 14.7299 7.51247 14.4212 7.04946 14.0127C6.91328 13.8946 6.87697 13.7494 6.89512 13.5678C7.0313 12.5147 6.58645 11.7249 5.60596 11.3163C5.40623 11.2346 5.28821 11.1075 5.25189 10.8805C5.15203 10.2814 5.17926 9.68216 5.27005 9.09205C5.29729 8.89232 5.43347 8.80154 5.61504 8.73799C6.30501 8.48379 6.72263 7.98446 6.89512 7.27633C6.95868 7.00397 6.9496 6.7316 6.9042 6.45924C6.87697 6.28675 6.92236 6.15058 7.04946 6.03256C7.51247 5.61494 8.04811 5.30626 8.63822 5.09745C8.80164 5.04298 8.95597 5.06115 9.08307 5.17917C9.82752 5.86006 11.0077 5.86006 11.7613 5.17917C11.8884 5.06115 12.0427 5.04298 12.2061 5.09745C12.7962 5.30626 13.3228 5.61494 13.7949 6.02347C13.9038 6.11426 13.9492 6.23228 13.9492 6.35938L13.9129 6.34123Z" stroke="#F7581F" stroke-width="1.5" stroke-linecap="round" stroke-linejoin="round"/>
<path d="M20.231 9.40992L18.9782 10.5629L17.8252 9.31006" stroke="#F7581F" stroke-width="1.5" stroke-linecap="round" stroke-linejoin="round"/>
<path d="M10.3711 18.6429C12.8859 18.6429 15.1101 17.5353 16.7261 15.8557" stroke="#F7581F" stroke-width="1.5" stroke-linecap="round" stroke-linejoin="round"/>
<circle cx="18.0106" cy="13.1988" r="0.740107" fill="#F7581F"/>
</svg>
