<svg width="20" height="20" viewBox="0 0 20 20" fill="none" xmlns="http://www.w3.org/2000/svg">
<path d="M14.2835 9.99854C14.2835 12.3785 12.3546 14.2978 9.98423 14.2978C8.81343 14.2978 7.7578 13.8276 6.98047 13.0695" stroke="#F7581F" stroke-width="1.5" stroke-linecap="round" stroke-linejoin="round"/>
<path d="M5.68555 9.99877C5.68555 7.61879 7.61448 5.69946 9.98486 5.69946C11.1844 5.69946 12.2689 6.18888 13.0462 6.97581" stroke="#F7581F" stroke-width="1.5" stroke-linecap="round" stroke-linejoin="round"/>
<path d="M12.9297 10.9198L14.302 9.65308L15.5688 11.0254" stroke="#F7581F" stroke-width="1.5" stroke-linecap="round" stroke-linejoin="round"/>
<path d="M7.01914 9.04868L5.65641 10.3154L4.38965 8.94312" stroke="#F7581F" stroke-width="1.5" stroke-linecap="round" stroke-linejoin="round"/>
<path d="M16.1546 3.61686C16.0299 4.35581 16.0203 5.04677 16.2986 5.71854C16.6825 6.65901 17.3158 7.34038 18.2659 7.70505C18.717 7.87779 18.9377 8.1369 19.0049 8.61674C19.1488 9.62439 19.12 10.6128 18.9665 11.6109C18.9185 11.9372 18.717 12.1099 18.4195 12.2251C16.9992 12.7529 16.2314 13.7893 16.0395 15.2864C16.0011 15.6127 16.0683 15.9198 16.1067 16.2365C16.1355 16.5532 16.0587 16.8027 15.8188 17.0138C15.0126 17.6952 14.101 18.2038 13.1125 18.5781C12.7862 18.7028 12.4983 18.6453 12.22 18.4245C10.7613 17.2729 9.14908 17.2825 7.66159 18.4533C7.43127 18.6357 7.20095 18.6836 6.93225 18.5877C5.89581 18.2422 4.97453 17.6952 4.14921 16.985C3.9093 16.7739 3.84212 16.5244 3.88051 16.2077C4.12042 14.3651 3.3335 12.9928 1.62529 12.2731C1.27021 12.1195 1.06868 11.8988 1.00151 11.5149C0.819169 10.4689 0.867152 9.43245 1.0303 8.38641C1.08788 8.04093 1.3182 7.87779 1.62529 7.76263C2.82487 7.31159 3.55422 6.45749 3.85172 5.21952C3.96688 4.74928 3.94768 4.25985 3.87091 3.78961C3.82293 3.48252 3.9093 3.2426 4.13002 3.04107C4.93614 2.31172 5.86702 1.77431 6.89386 1.40964C7.17216 1.31367 7.44087 1.34246 7.67119 1.55358C8.97634 2.75317 11.0204 2.74357 12.3352 1.55358C12.5655 1.35205 12.8342 1.31367 13.1125 1.40964C14.1393 1.77431 15.0606 2.31172 15.8859 3.02187C16.0779 3.18502 16.1642 3.39615 16.1546 3.59768V3.61686Z" stroke="#F7581F" stroke-width="1.5" stroke-linecap="round" stroke-linejoin="round"/>
</svg>
