<?xml version="1.0" encoding="UTF-8"?>
<svg xmlns="http://www.w3.org/2000/svg" width="28" height="28" viewBox="0 0 28 28" fill="none">
  <g clip-path="url(#clip0_146_2409)">
    <path d="M21.1791 21.5193H21.7086C23.7061 21.5193 25.3186 19.9069 25.3186 17.9093V6.61001C25.3186 4.61247 23.7061 3 21.7086 3H6.20962C4.21208 3 2.59961 4.61247 2.59961 6.61001V17.9093C2.59961 19.9069 4.21208 21.5193 6.20962 21.5193H9.96403C10.5537 21.5193 11.1072 21.8322 11.396 22.3497L12.4068 24.1065C13.0927 25.2978 14.8255 25.2978 15.5114 24.1065L16.5222 22.3497C16.823 21.8322 17.3645 21.5193 17.9542 21.5193" stroke="#F7581F" stroke-width="2" stroke-linecap="round" stroke-linejoin="round"></path>
    <path d="M15.9445 16.8384L13.971 17.1151C13.5739 17.1753 13.2249 16.8263 13.2851 16.4292L13.5619 14.4558C13.5859 14.3234 13.6461 14.2031 13.7303 14.1068L18.7844 9.05279C19.4943 8.34282 20.6375 8.34282 21.3354 9.05279C22.0454 9.76275 22.0454 10.9059 21.3354 11.6039L16.2814 16.6579C16.1851 16.7541 16.0648 16.8143 15.9324 16.8263L15.9445 16.8384Z" stroke="#F7581F" stroke-width="2" stroke-linecap="round" stroke-linejoin="round"></path>
    <path d="M6.73926 7.07932H15.6319" stroke="#F7581F" stroke-width="2" stroke-linecap="round" stroke-linejoin="round"></path>
    <path d="M6.73828 11.25H11.5516" stroke="#F7581F" stroke-width="2" stroke-linecap="round" stroke-linejoin="round"></path>
  </g>
  <defs>
    <clipPath id="clip0_146_2409">
      <rect width="28" height="28" fill="white"></rect>
    </clipPath>
  </defs>
</svg>
