<?xml version="1.0" encoding="UTF-8"?>
<svg xmlns="http://www.w3.org/2000/svg" width="28" height="28" viewBox="0 0 28 28" fill="none">
  <path d="M14 25C20.0751 25 25 20.0751 25 14C25 7.92487 20.0751 3 14 3C7.92487 3 3 7.92487 3 14C3 20.0751 7.92487 25 14 25Z" stroke="#F7581F" stroke-width="2" stroke-linecap="round" stroke-linejoin="round"></path>
  <path d="M14.8086 6.32776C15.1437 6.8015 15.6636 7.14813 15.9063 7.67965C16.4609 8.89288 15.2939 10.1986 15.2477 11.5389C15.2246 12.0935 15.3979 12.6366 15.629 13.1334C15.9525 13.8498 16.484 14.5778 17.2697 14.728C18.0208 14.8666 18.7372 14.416 19.3149 13.9191C19.8926 13.4223 20.4473 12.8446 21.1752 12.6481C21.6489 12.521 22.1573 12.5557 22.6542 12.5673C23.151 12.5788 23.671 12.5441 24.0985 12.2784C24.526 12.0126 24.7918 11.458 24.5838 11.0074" stroke="#F7581F" stroke-width="2" stroke-linecap="round" stroke-linejoin="round"></path>
  <path d="M7.79492 23.1396C7.92202 22.4117 8.06068 21.6606 8.38421 21.002C8.70774 20.3434 9.27391 19.7888 9.94408 19.6848C10.3716 19.627 10.8107 19.7541 11.2382 19.6963C12.5439 19.5577 13.2718 17.9631 14.4273 17.2814C14.8201 17.0503 15.2592 16.9232 15.6983 16.9232C16.2182 16.9232 16.8191 17.1659 16.9693 17.7089C17.1079 18.1942 16.8422 18.6795 16.6689 19.1764C16.5302 19.5692 16.5995 20.0199 16.9 20.3087C17.1542 20.5514 17.4315 21.0251 17.2697 21.8224" stroke="#F7581F" stroke-width="2" stroke-linecap="round" stroke-linejoin="round"></path>
  <path d="M6.24609 14.8781C6.67361 14.9705 7.08958 15.1323 7.52865 15.1669C7.96773 15.2016 8.45303 15.0745 8.69567 14.7048C8.84588 14.4737 8.88055 14.1848 8.88055 13.9075C8.89211 13.3182 8.84588 12.7405 8.8921 12.1512C8.93832 11.5619 9.12319 10.9726 9.52761 10.5566C9.87425 10.1984 10.3826 9.97891 10.6368 9.55139C10.9604 9.00832 10.7639 8.28038 10.3711 7.78353C9.97823 7.28668 9.42362 6.9516 8.91521 6.55874C8.40681 6.16588 7.93307 5.68059 7.80597 5.05664" stroke="#F7581F" stroke-width="2" stroke-linecap="round" stroke-linejoin="round"></path>
</svg>
