<?xml version="1.0" encoding="UTF-8"?>
<svg xmlns="http://www.w3.org/2000/svg" width="28" height="28" viewBox="0 0 28 28" fill="none">
  <path d="M17.9675 6.44336H10.3128C8.33108 6.44336 6.72461 8.0498 6.72461 10.0315V17.6861C6.72461 19.6677 8.33108 21.2741 10.3128 21.2741H17.9675C19.9492 21.2741 21.5556 19.6677 21.5556 17.6861V10.0315C21.5556 8.0498 19.9492 6.44336 17.9675 6.44336Z" stroke="#F7581F" stroke-width="2" stroke-linecap="round" stroke-linejoin="round"></path>
  <path d="M22.0898 13.8334H23.6155C24.3591 13.8334 24.9617 14.436 24.9617 15.1796V19.2437" stroke="#F7581F" stroke-width="2" stroke-linecap="round" stroke-linejoin="round"></path>
  <path d="M14.1525 22.0128V23.6539C14.1525 24.3974 13.55 25 12.8064 25H8.74219" stroke="#F7581F" stroke-width="2" stroke-linecap="round" stroke-linejoin="round"></path>
  <path d="M6.19236 13.9103H4.34618C3.60257 13.9103 3 13.3077 3 12.5641V8.5" stroke="#F7581F" stroke-width="2" stroke-linecap="round" stroke-linejoin="round"></path>
  <path d="M14.1523 5.91026V4.34615C14.1523 3.60256 14.7549 3 15.4985 3H19.5627" stroke="#F7581F" stroke-width="2" stroke-linecap="round" stroke-linejoin="round"></path>
  <path d="M13.6444 18.308H11.1497C10.3435 18.308 9.68945 17.8117 9.68945 17.2V15.3419" stroke="#F7581F" stroke-width="2" stroke-linecap="round" stroke-linejoin="round"></path>
</svg>
