<?xml version="1.0" encoding="UTF-8"?>
<svg xmlns="http://www.w3.org/2000/svg" width="28" height="28" viewBox="0 0 28 28" fill="none">
  <path d="M20.6572 17.8354V5.2011C20.6572 3.9905 19.6667 3 18.4561 3H9.10142C6.6692 3 4.69922 4.96998 4.69922 7.4022V18.4077C4.69922 20.8399 6.6692 22.8099 9.10142 22.8099H18.4561C19.6667 22.8099 20.6572 21.8194 20.6572 20.6088" stroke="#F7581F" stroke-width="2" stroke-linecap="round" stroke-linejoin="round"></path>
  <path d="M7.1875 22.799C7.1875 24.0096 8.17799 25.0001 9.3886 25.0001H18.7433C21.1755 25.0001 23.1455 23.0301 23.1455 20.5979V9.59236C23.1455 7.85349 22.133 6.34573 20.6692 5.63037" stroke="#F7581F" stroke-width="2" stroke-linecap="round" stroke-linejoin="round"></path>
  <path d="M10.5859 12.8938C10.5859 11.7382 11.5214 10.7917 12.688 10.7917C13.8546 10.7917 14.79 11.7272 14.79 12.8938C14.79 14.0604 13.8546 14.9959 12.688 14.9959" stroke="#F7581F" stroke-width="2" stroke-linecap="round" stroke-linejoin="round"></path>
  <path d="M16.2754 9.1741C16.1983 9.60331 16.1983 10.0105 16.3524 10.3957C16.5725 10.946 16.9467 11.3422 17.497 11.5513C17.7611 11.6503 17.8822 11.8044 17.9262 12.0795C18.0142 12.6628 17.9922 13.2461 17.9042 13.8294C17.8712 14.0165 17.7611 14.1266 17.585 14.1816C16.7596 14.4898 16.3084 15.0951 16.1983 15.9645C16.1763 16.1516 16.2203 16.3387 16.2313 16.5148C16.2534 16.7019 16.2093 16.8449 16.0663 16.966C15.593 17.3622 15.0648 17.6593 14.4925 17.8795C14.3054 17.9455 14.1403 17.9235 13.9752 17.7914C13.1278 17.1201 12.1813 17.1311 11.3229 17.8024C11.1908 17.9125 11.0588 17.9345 10.8937 17.8795C10.2884 17.6703 9.7491 17.3622 9.27587 16.944C9.1328 16.8229 9.09978 16.6799 9.12179 16.4928C9.26486 15.4142 8.80264 14.6218 7.81214 14.2036C7.60304 14.1156 7.49298 13.9835 7.44896 13.7634C7.34991 13.1581 7.37192 12.5528 7.47097 11.9475C7.50398 11.7494 7.63605 11.6503 7.82314 11.5843C8.51649 11.3202 8.9457 10.8249 9.12179 10.0986C9.18782 9.82342 9.17682 9.53728 9.12179 9.26214C9.08877 9.08606 9.1438 8.94298 9.27587 8.83293C9.7491 8.40371 10.2884 8.09556 10.8827 7.88646C11.0478 7.83143 11.2018 7.85344 11.3339 7.9745C12.0933 8.66785 13.2819 8.66785 14.0523 7.9745C14.1843 7.85344 14.3384 7.83142 14.5035 7.89746C15.0978 8.10656 15.637 8.42573 16.1213 8.83293C16.2313 8.93198 16.2864 9.05304 16.2754 9.1741Z" stroke="#F7581F" stroke-width="2" stroke-linecap="round" stroke-linejoin="round"></path>
</svg>
