<?xml version="1.0" encoding="UTF-8"?>
<svg xmlns="http://www.w3.org/2000/svg" width="28" height="28" viewBox="0 0 28 28" fill="none">
  <path d="M7.5 18.917V5.75C7.5 4.232 8.732 3 10.25 3H17.95C19.468 3 20.7 4.232 20.7 5.75V22.25C20.7 23.768 19.468 25 17.95 25H10.25C8.732 25 7.5 23.768 7.5 22.25V21.546" stroke="#F7581F" stroke-width="2" stroke-linecap="round" stroke-linejoin="round"></path>
  <path d="M11.9004 22.8H16.3004" stroke="#F7581F" stroke-width="2" stroke-linecap="round" stroke-linejoin="round"></path>
  <path d="M11.9004 5.64001H14.1004" stroke="#F7581F" stroke-width="2" stroke-linecap="round" stroke-linejoin="round"></path>
  <circle cx="16.2999" cy="5.64001" r="0.88" fill="#F7581F"></circle>
  <path d="M12.8806 17.52L11.0766 17.773C10.7136 17.828 10.3946 17.509 10.4496 17.146L10.7026 15.342C10.7246 15.221 10.7796 15.111 10.8566 15.023L15.4766 10.403C16.1256 9.75401 17.1706 9.75401 17.8086 10.403C18.4576 11.052 18.4576 12.097 17.8086 12.735L13.1886 17.355C13.1006 17.443 12.9906 17.498 12.8696 17.509L12.8806 17.52Z" stroke="#F7581F" stroke-width="2" stroke-linecap="round" stroke-linejoin="round"></path>
</svg>
