<?xml version="1.0" encoding="UTF-8"?>
<svg xmlns="http://www.w3.org/2000/svg" width="28" height="28" viewBox="0 0 28 28" fill="none">
  <path d="M4.31244 16.8083V6.49576C4.31244 4.56144 5.87388 3 7.8082 3H16.769C17.3283 3 17.876 3.2214 18.2722 3.61758L23.3527 8.65148C23.7605 9.04767 23.9819 9.59534 23.9819 10.1663V21.5042C23.9819 23.4386 22.4205 25 20.4862 25H7.79654C5.86222 25 4.30078 23.4386 4.30078 21.5042" stroke="#F7581F" stroke-width="2" stroke-linecap="round" stroke-linejoin="round"></path>
  <path d="M10.0461 17.7174C10.0461 16.9194 9.40185 16.2725 8.60706 16.2725C7.81227 16.2725 7.16797 16.9194 7.16797 17.7174V20.6538C7.16797 21.4518 7.81227 22.0987 8.60706 22.0987C9.40185 22.0987 10.0461 21.4518 10.0461 20.6538V17.7174Z" stroke="#F7581F" stroke-width="2" stroke-linecap="round" stroke-linejoin="round"></path>
  <path d="M15.593 16.5518C15.593 15.7538 14.9487 15.1069 14.1539 15.1069C13.3591 15.1069 12.7148 15.7538 12.7148 16.5518V20.6535C12.7148 21.4515 13.3591 22.0985 14.1539 22.0985C14.9487 22.0985 15.593 21.4515 15.593 20.6535V16.5518Z" stroke="#F7581F" stroke-width="2" stroke-linecap="round" stroke-linejoin="round"></path>
  <path d="M21.1379 14.2213C21.1379 13.4233 20.4936 12.7764 19.6989 12.7764C18.9041 12.7764 18.2598 13.4233 18.2598 14.2213V20.6535C18.2598 21.4515 18.9041 22.0984 19.6989 22.0984C20.4936 22.0984 21.1379 21.4515 21.1379 20.6535V14.2213Z" stroke="#F7581F" stroke-width="2" stroke-linecap="round" stroke-linejoin="round"></path>
  <path d="M7.16797 6.9502H12.7146" stroke="#F7581F" stroke-width="2" stroke-linecap="round" stroke-linejoin="round"></path>
  <path d="M17.6543 6.54248V8.37193C17.6543 8.87299 18.0621 9.28083 18.5632 9.28083H20.3926" stroke="#F7581F" stroke-width="2" stroke-linecap="round" stroke-linejoin="round"></path>
</svg>
