<svg width="45" height="45" viewBox="0 0 45 45" fill="none" xmlns="http://www.w3.org/2000/svg">
<path d="M35.2181 9.65948C34.9671 11.146 34.9478 12.5359 35.5076 13.8873C36.2798 15.7792 37.554 17.1498 39.4652 17.8834C40.3725 18.2309 40.8166 18.7522 40.9517 19.7174C41.2413 21.7445 41.1834 23.7329 40.8745 25.7406C40.7779 26.397 40.3725 26.7445 39.7741 26.9761C36.9169 28.0379 35.3725 30.1229 34.9864 33.1345C34.9092 33.7908 35.0443 34.4086 35.1215 35.0457C35.1795 35.6827 35.025 36.1847 34.5424 36.6094C32.9208 37.9801 31.0868 39.0032 29.0984 39.7561C28.442 40.0071 27.8628 39.8913 27.303 39.4472C24.3686 37.1306 21.1253 37.1499 18.1331 39.5052C17.6697 39.872 17.2064 39.9685 16.6659 39.7754C14.5809 39.0804 12.7276 37.9801 11.0674 36.5515C10.5848 36.1268 10.4496 35.6248 10.5269 34.9878C11.0095 31.2812 9.42646 28.5206 5.99016 27.0727C5.27587 26.7638 4.87046 26.3198 4.73533 25.5476C4.36853 23.4433 4.46506 21.3584 4.79324 19.2541C4.90907 18.5591 5.37239 18.2309 5.99016 17.9993C8.40329 17.0919 9.87048 15.3738 10.4689 12.8834C10.7006 11.9375 10.662 10.9529 10.5075 10.007C10.411 9.3892 10.5848 8.90657 11.0288 8.50116C12.6504 7.03398 14.523 5.9529 16.5887 5.2193C17.1485 5.02625 17.689 5.08416 18.1524 5.50888C20.7779 7.92201 24.8898 7.90271 27.5346 5.50888C27.998 5.10347 28.5385 5.02625 29.0984 5.2193C31.164 5.9529 33.0173 7.03398 34.6775 8.46256C35.0636 8.79075 35.2374 9.21546 35.2181 9.62086V9.65948Z" stroke="#F7581F" stroke-width="2.5" stroke-linecap="round" stroke-linejoin="round"/>
<path d="M28.5769 14.312H17.0711C15.4718 14.312 14.1753 15.6085 14.1753 17.2078C14.1753 18.8071 15.4718 20.1035 17.0711 20.1035H28.5769C30.1762 20.1035 31.4727 18.8071 31.4727 17.2078C31.4727 15.6085 30.1762 14.312 28.5769 14.312Z" stroke="#F7581F" stroke-width="2.5" stroke-linecap="round" stroke-linejoin="round"/>
<path d="M28.5769 24.9297H17.0711C15.4718 24.9297 14.1753 26.2262 14.1753 27.8255C14.1753 29.4247 15.4718 30.7212 17.0711 30.7212H28.5769C30.1762 30.7212 31.4727 29.4247 31.4727 27.8255C31.4727 26.2262 30.1762 24.9297 28.5769 24.9297Z" stroke="#F7581F" stroke-width="2.5" stroke-linecap="round" stroke-linejoin="round"/>
<ellipse cx="17.0326" cy="17.2079" rx="0.965255" ry="0.965255" fill="#F7581F"/>
<ellipse cx="17.0326" cy="27.8256" rx="0.965255" ry="0.965255" fill="#F7581F"/>
</svg>
