<svg width="45" height="45" viewBox="0 0 45 45" fill="none" xmlns="http://www.w3.org/2000/svg">
<path d="M8.59104 5.11377H25.9774C27.8899 5.11377 29.4547 6.67854 29.4547 8.59104V32.932H8.59104C6.67854 32.932 5.11377 31.3672 5.11377 29.4547V8.59104C5.11377 6.67854 6.67854 5.11377 8.59104 5.11377Z" stroke="#F7581F" stroke-width="2.5" stroke-linecap="round" stroke-linejoin="round"/>
<path d="M32.9318 12.0684H36.409C38.3215 12.0684 39.8863 13.6331 39.8863 15.5456V36.4093C39.8863 38.3218 38.3215 39.8865 36.409 39.8865H15.5454V32.932" stroke="#F7581F" stroke-width="2.5" stroke-linecap="round" stroke-linejoin="round"/>
<path d="M29.4545 32.9321L22.5 36.4094" stroke="#F7581F" stroke-width="2.5" stroke-linecap="round" stroke-linejoin="round"/>
<path d="M18.0322 16.5925L18.293 17.427H19.1623C20.3098 17.427 20.7792 18.8875 19.8577 19.5656L19.1449 20.0698L19.4057 20.9043C19.7534 21.9997 18.519 22.8864 17.5975 22.2257L16.8847 21.7215L16.1718 22.2257C15.2503 22.9038 13.9985 21.9997 14.3636 20.9043L14.6244 20.0698L13.9116 19.5656C12.9901 18.8875 13.4596 17.427 14.6071 17.427H15.4764L15.7372 16.5925C16.0849 15.4972 17.6323 15.4972 17.98 16.5925H18.0322Z" stroke="#F7581F" stroke-width="2.5" stroke-linecap="round" stroke-linejoin="round"/>
<path d="M10.6947 23.8387C9.66888 22.5 9.04297 20.8309 9.04297 19.0227C9.04297 14.6761 12.555 11.1641 16.9016 11.1641C21.2482 11.1641 24.7602 14.6761 24.7602 19.0227C24.7602 23.3693 21.2482 26.8813 16.9016 26.8813C15.8237 26.8813 14.7979 26.6727 13.859 26.2728" stroke="#F7581F" stroke-width="2.5" stroke-linecap="round" stroke-linejoin="round"/>
</svg>
