<svg width="45" height="45" viewBox="0 0 45 45" fill="none" xmlns="http://www.w3.org/2000/svg">
<g clip-path="url(#clip0_348_2673)">
<path d="M38.1746 28.3734V16.6269C38.1746 14.6193 37.1003 12.7525 35.3569 11.7487L25.1777 5.86664C23.4343 4.86281 21.2857 4.86281 19.5423 5.86664L9.36315 11.7487C7.61967 12.7525 6.54541 14.6193 6.54541 16.6269V28.3734C6.54541 30.381 7.61967 32.2478 9.36315 33.2516L19.5423 39.1336C21.2857 40.1375 23.4343 40.1375 25.1777 39.1336L35.3569 33.2516C37.1003 32.2478 38.1746 30.381 38.1746 28.3734Z" stroke="#F7581F" stroke-width="2.5" stroke-linecap="round" stroke-linejoin="round"/>
<path d="M18.3623 22.4923C18.3623 20.2734 20.1586 18.4771 22.3776 18.4771C24.5966 18.4771 26.3929 20.2734 26.3929 22.4923C26.3929 24.7113 24.5966 26.5076 22.3776 26.5076" stroke="#F7581F" stroke-width="2.5" stroke-linecap="round" stroke-linejoin="round"/>
<path d="M29.2295 15.3934C29.0886 16.2212 29.071 16.9784 29.388 17.7357C29.8106 18.7747 30.5151 19.5496 31.5717 19.9371C32.0648 20.1308 32.3114 20.4126 32.3994 20.9585C32.5579 22.068 32.5227 23.1775 32.3642 24.287C32.3114 24.6392 32.0825 24.8505 31.7655 24.9738C30.1981 25.5725 29.3351 26.7172 29.1238 28.3727C29.071 28.7425 29.159 29.0771 29.1943 29.4293C29.2295 29.7816 29.1414 30.0633 28.8773 30.2923C27.9791 31.0495 26.9577 31.6131 25.8658 32.0357C25.496 32.1766 25.179 32.1238 24.8796 31.8596C23.2594 30.574 21.4631 30.5916 19.8076 31.8949C19.5435 32.0886 19.2969 32.159 18.9975 32.0533C17.8528 31.6659 16.8138 31.0671 15.9156 30.2747C15.6515 30.0457 15.581 29.7639 15.6163 29.4117C15.8804 27.3688 15.0175 25.8367 13.1155 25.0442C12.7281 24.8857 12.4991 24.6392 12.4287 24.1989C12.235 23.0366 12.2878 21.8743 12.4639 20.7295C12.5167 20.3421 12.7809 20.166 13.1331 20.0427C14.4715 19.5496 15.2817 18.581 15.6163 17.2074C15.7395 16.679 15.7219 16.1507 15.6339 15.6224C15.581 15.2878 15.6691 15.0236 15.9156 14.7947C16.8138 13.9846 17.8528 13.3858 18.9975 12.9807C19.3145 12.8751 19.6139 12.9103 19.8605 13.1392C21.3046 14.4601 23.594 14.4601 25.0557 13.1392C25.3023 12.9103 25.6016 12.8751 25.9186 12.9807C27.0633 13.3858 28.0848 13.9846 29.0005 14.7771C29.2119 14.9532 29.2999 15.1821 29.2999 15.4286L29.2295 15.3934Z" stroke="#F7581F" stroke-width="2.5" stroke-linecap="round" stroke-linejoin="round"/>
<path d="M22.3594 39.8202V35.6816" stroke="#F7581F" stroke-width="2.5" stroke-linecap="round" stroke-linejoin="round"/>
</g>
<defs>
<clipPath id="clip0_348_2673">
<rect width="45" height="45" fill="white"/>
</clipPath>
</defs>
</svg>
