<?xml version="1.0" encoding="UTF-8"?>
<svg xmlns="http://www.w3.org/2000/svg" width="45" height="45" viewBox="0 0 45 45" fill="none">
  <path d="M24.1944 12.963L24.6593 14.4135C24.901 15.176 25.6263 15.6967 26.4259 15.6967H27.9508C29.7175 15.6967 30.4613 17.9654 29.0294 19.0068L27.7835 19.8994C27.1326 20.3829 26.8536 21.2197 27.114 21.9822L27.5789 23.4327C28.1182 25.1249 26.2028 26.5197 24.7523 25.4783L23.5063 24.5857C22.8555 24.1022 21.9629 24.1022 21.312 24.5857L20.066 25.4783C18.6341 26.5197 16.7001 25.1249 17.2394 23.4327L17.7043 21.9822C17.9461 21.2197 17.6857 20.3643 17.0349 19.8994L15.7889 19.0068C14.357 17.9654 15.0823 15.6967 16.8675 15.6967H18.3924C19.192 15.6967 19.9173 15.176 20.159 14.4135L20.6239 12.963C21.1632 11.2708 23.5621 11.2708 24.1014 12.963H24.1944Z" stroke="#F7581F" stroke-width="2.5" stroke-linecap="round" stroke-linejoin="round"></path>
  <path d="M11.8653 29.03C9.76391 26.7612 8.36919 23.8044 8.09025 20.4757C7.40219 12.5351 13.2972 5.54297 21.2192 4.8735C29.1411 4.20404 36.1519 10.0804 36.8214 18.0024C37.4908 25.9244 31.6144 32.9351 23.6925 33.6046C21.7213 33.772 19.8059 33.5302 18.0392 32.9723" stroke="#F7581F" stroke-width="2.5" stroke-linecap="round" stroke-linejoin="round"></path>
  <path d="M14.4883 31.8008V37.9933C14.4883 39.9273 16.8314 40.8943 18.1889 39.5368L20.904 36.8217C21.7594 35.9663 23.1169 35.9663 23.9723 36.8217L26.6874 39.5368C28.0635 40.9129 30.388 39.9273 30.388 37.9933V31.8008" stroke="#F7581F" stroke-width="2.5" stroke-linecap="round" stroke-linejoin="round"></path>
</svg>
