<svg width="45" height="45" viewBox="0 0 45 45" fill="none" xmlns="http://www.w3.org/2000/svg">
<g clip-path="url(#clip0_348_2734)">
<path d="M34.3641 8.77344H10.6362C7.58623 8.77344 5.11377 11.2316 5.11377 14.2639V34.3954C5.11377 37.4277 7.58623 39.8859 10.6362 39.8859H34.3641C37.414 39.8859 39.8865 37.4277 39.8865 34.3954V14.2639C39.8865 11.2316 37.414 8.77344 34.3641 8.77344Z" stroke="#F7581F" stroke-width="2.5" stroke-linecap="round" stroke-linejoin="round"/>
<path d="M14.8876 12.4343C12.8628 12.4343 11.2061 10.7872 11.2061 8.77406C11.2061 6.7609 12.8628 5.11377 14.8876 5.11377C16.9125 5.11377 18.5693 6.7609 18.5693 8.77406" stroke="#F7581F" stroke-width="2.5" stroke-linecap="round" stroke-linejoin="round"/>
<path d="M29.873 12.4343C27.8481 12.4343 26.1914 10.7872 26.1914 8.77406C26.1914 6.7609 27.8481 5.11377 29.873 5.11377C31.8979 5.11377 33.5546 6.7609 33.5546 8.77406" stroke="#F7581F" stroke-width="2.5" stroke-linecap="round" stroke-linejoin="round"/>
<path d="M27.3508 30.571C32.8179 27.8258 32.1921 22.7929 32.1921 22.7929C28.492 22.5732 26.4856 24.7328 26.4856 24.7328C27.7557 20.1209 22.5094 14.2461 22.5094 14.2461C22.5094 14.2461 17.2632 20.1209 18.5333 24.7328C18.5333 24.7328 16.5084 22.5549 12.8268 22.7929C12.8268 22.7929 12.2194 27.8258 17.6681 30.571C17.6681 30.571 14.5572 31.4311 13.6368 32.7488C13.6368 32.7488 16.8582 35.1463 22.5094 33.3162C28.1791 35.1463 31.3821 32.7488 31.3821 32.7488C30.4617 31.4311 27.3508 30.571 27.3508 30.571Z" stroke="#F7581F" stroke-width="2.5" stroke-linecap="round" stroke-linejoin="round"/>
<path d="M22.5005 31.5405L22.5005 35.7133" stroke="#F7581F" stroke-width="2.5" stroke-linecap="round" stroke-linejoin="round"/>
</g>
<defs>
<clipPath id="clip0_348_2734">
<rect width="45" height="45" fill="white"/>
</clipPath>
</defs>
</svg>
