<svg width="45" height="45" viewBox="0 0 45 45" fill="none" xmlns="http://www.w3.org/2000/svg">
<path d="M25.8296 8.85596H33.5329C36.2081 8.85596 38.3676 11.5553 38.3676 14.8993V33.0295C38.3676 36.3735 36.2081 39.0729 33.5329 39.0729H10.9709C8.29573 39.0729 6.13623 36.3735 6.13623 33.0295V31.015" stroke="#F7581F" stroke-width="2.5" stroke-linecap="round" stroke-linejoin="round"/>
<path d="M6.13623 22.2521V13.3884C6.13623 10.7132 8.29573 8.55371 10.9709 8.55371H18.6742" stroke="#F7581F" stroke-width="2.5" stroke-linecap="round" stroke-linejoin="round"/>
<path d="M16.2563 23.2068C17.7159 23.2068 18.8992 22.0235 18.8992 20.5639C18.8992 19.1042 17.7159 17.9209 16.2563 17.9209C14.7966 17.9209 13.6133 19.1042 13.6133 20.5639C13.6133 22.0235 14.7966 23.2068 16.2563 23.2068Z" stroke="#F7581F" stroke-width="2.5" stroke-linecap="round" stroke-linejoin="round"/>
<path d="M16.2567 30.4426C19.176 30.4426 21.5426 29.3603 21.5426 28.0253C21.5426 26.6902 19.176 25.6079 16.2567 25.6079C13.3373 25.6079 10.9707 26.6902 10.9707 28.0253C10.9707 29.3603 13.3373 30.4426 16.2567 30.4426Z" stroke="#F7581F" stroke-width="2.5" stroke-linecap="round" stroke-linejoin="round"/>
<path d="M27.0864 20.5154L28.9397 22.3687L32.6302 18.6621" stroke="#F7581F" stroke-width="2.5" stroke-linecap="round" stroke-linejoin="round"/>
<path d="M27.0864 27.8484L28.9397 29.7017L32.6302 26.0112" stroke="#F7581F" stroke-width="2.5" stroke-linecap="round" stroke-linejoin="round"/>
<path d="M23.4123 6.13623H21.0917C19.7566 6.13623 18.6743 7.21852 18.6743 8.55359V10.1652C18.6743 11.5002 19.7566 12.5825 21.0917 12.5825H23.4123C24.7474 12.5825 25.8297 11.5002 25.8297 10.1652V8.55359C25.8297 7.21852 24.7474 6.13623 23.4123 6.13623Z" stroke="#F7581F" stroke-width="2.5" stroke-linecap="round" stroke-linejoin="round"/>
</svg>
