<?xml version="1.0" encoding="UTF-8"?>
<svg xmlns="http://www.w3.org/2000/svg" width="45" height="45" viewBox="0 0 45 45" fill="none">
  <path d="M38.0434 18.4596C37.5334 11.1506 31.6976 5.31478 24.4075 4.82373C23.8598 4.78596 23.3877 5.23924 23.3877 5.80582C23.3877 8.05328 23.3877 13.5303 23.3877 16.8354C23.3877 17.4964 23.3877 18.0819 23.3877 18.5351C23.3877 19.0828 23.8221 19.4983 24.3509 19.4983C26.9949 19.4983 34.3606 19.4983 37.0613 19.4983C37.6279 19.4983 38.0811 19.0262 38.0434 18.4785V18.4596Z" stroke="#F7581F" stroke-width="2.5" stroke-linecap="round" stroke-linejoin="round"></path>
  <path d="M29.8637 23.5022H26.0676C25.1988 23.5022 24.7644 24.5598 25.3688 25.1642L34.9441 34.7395C35.3407 35.1361 35.9828 35.1361 36.3605 34.7206C38.7969 31.9821 40.3455 28.4315 40.591 24.5221C40.6288 23.9744 40.1567 23.5022 39.609 23.5022H33.8109" stroke="#F7581F" stroke-width="2.5" stroke-linecap="round" stroke-linejoin="round"></path>
  <path d="M19.5342 24.9753V20.6126V10.7162C19.5342 10.2063 19.1187 9.79077 18.6088 9.79077C13.4529 9.79077 8.63688 12.6048 6.295 17.1942C0.42139 28.7147 8.63689 40.1786 19.5342 40.1786C23.387 40.1786 26.8998 38.7433 29.5628 36.4014C29.9594 36.0426 29.9594 35.4193 29.5817 35.0416L22.5749 28.0348" stroke="#F7581F" stroke-width="2.5" stroke-linecap="round" stroke-linejoin="round"></path>
</svg>
