<?xml version="1.0" encoding="UTF-8"?>
<svg xmlns="http://www.w3.org/2000/svg" width="45" height="45" viewBox="0 0 45 45" fill="none">
  <path d="M12.0537 30.4024V9.24118C12.0537 6.80153 14.0337 4.82153 16.4734 4.82153H28.8484C31.288 4.82153 33.268 6.80153 33.268 9.24118V35.759C33.268 38.1987 31.288 40.1787 28.8484 40.1787H16.4734C14.0337 40.1787 12.0537 38.1987 12.0537 35.759V34.6276" stroke="#F7581F" stroke-width="2.5" stroke-linecap="round" stroke-linejoin="round"></path>
  <path d="M19.126 36.6431H26.1974" stroke="#F7581F" stroke-width="2.5" stroke-linecap="round" stroke-linejoin="round"></path>
  <path d="M19.126 9.06445H22.6617" stroke="#F7581F" stroke-width="2.5" stroke-linecap="round" stroke-linejoin="round"></path>
  <circle cx="26.1965" cy="9.06443" r="1.41429" fill="#F7581F"></circle>
  <path d="M20.6996 28.1573L17.8004 28.5639C17.217 28.6523 16.7043 28.1396 16.7927 27.5562L17.1993 24.657C17.2347 24.4625 17.323 24.2857 17.4468 24.1443L24.8718 16.7193C25.9148 15.6763 27.5943 15.6763 28.6197 16.7193C29.6627 17.7623 29.6627 19.4418 28.6197 20.4671L21.1947 27.8921C21.0532 28.0336 20.8764 28.122 20.682 28.1396L20.6996 28.1573Z" stroke="#F7581F" stroke-width="2.5" stroke-linecap="round" stroke-linejoin="round"></path>
</svg>
