<svg width="45" height="49" viewBox="0 0 45 49" fill="none" xmlns="http://www.w3.org/2000/svg">
<path d="M42.7692 32.3507V16.6493C42.7692 14.2285 41.4796 11.9887 39.3756 10.767L25.7783 2.91629C23.6742 1.69457 21.095 1.69457 18.991 2.91629L5.39367 10.767C3.28959 11.9887 2 14.2285 2 16.6493V32.3507C2 34.7715 3.28959 37.0113 5.39367 38.233L18.991 46.0837C21.095 47.3054 23.6742 47.3054 25.7783 46.0837L39.3756 38.233C41.4796 37.0113 42.7692 34.7715 42.7692 32.3507Z" stroke="#F7581F" stroke-width="3" stroke-linecap="round" stroke-linejoin="round"/>
<path d="M36.729 17.8484L24.4891 24.9072C23.1769 25.6538 21.5706 25.6538 20.2584 24.9072L8.01855 17.8484" stroke="#F7581F" stroke-width="3" stroke-linecap="round" stroke-linejoin="round"/>
<path d="M22.3838 25.6311V40.9478" stroke="#F7581F" stroke-width="3" stroke-linecap="round" stroke-linejoin="round"/>
<path d="M32.5873 35.8121V20.9252L16.1846 11.2419" stroke="#F7581F" stroke-width="3" stroke-linecap="round" stroke-linejoin="round"/>
</svg>
