<svg width="47" height="49" viewBox="0 0 47 49" fill="none" xmlns="http://www.w3.org/2000/svg">
<path d="M37.9523 6.73682H8.78772C5.03897 6.73682 2 9.91795 2 13.8421V39.8947C2 43.8189 5.03897 47 8.78772 47H37.9523C41.701 47 44.74 43.8189 44.74 39.8947V13.8421C44.74 9.91795 41.701 6.73682 37.9523 6.73682Z" stroke="#F7581F" stroke-width="3" stroke-linecap="round" stroke-linejoin="round"/>
<path d="M13.7368 11.4737C11.1316 11.4737 9 9.34211 9 6.73684C9 4.13158 11.1316 2 13.7368 2C16.3421 2 18.4737 4.13158 18.4737 6.73684" stroke="#F7581F" stroke-width="3" stroke-linecap="round" stroke-linejoin="round"/>
<path d="M32.9937 11.4737C30.3884 11.4737 28.2568 9.34211 28.2568 6.73684C28.2568 4.13158 30.3884 2 32.9937 2C35.5989 2 37.7305 4.13158 37.7305 6.73684" stroke="#F7581F" stroke-width="3" stroke-linecap="round" stroke-linejoin="round"/>
<path d="M21.1053 37.6842H14V30.579" stroke="#F7581F" stroke-width="3" stroke-linecap="round" stroke-linejoin="round"/>
<path d="M25.46 19H32.5652V26.1053" stroke="#F7581F" stroke-width="3" stroke-linecap="round" stroke-linejoin="round"/>
<path d="M30.9619 20.7896L14.9619 36.7896" stroke="#F7581F" stroke-width="3" stroke-linecap="round" stroke-linejoin="round"/>
</svg>
