<?xml version="1.0" encoding="UTF-8"?>
<svg xmlns="http://www.w3.org/2000/svg" width="45" height="45" viewBox="0 0 45 45" fill="none">
  <path d="M28.9286 11.8928H14.7857C12.833 11.8928 11.25 13.4758 11.25 15.4285V36.6428C11.25 38.5955 12.833 40.1785 14.7857 40.1785H28.9286C30.8813 40.1785 32.4643 38.5955 32.4643 36.6428V15.4285C32.4643 13.4758 30.8813 11.8928 28.9286 11.8928Z" stroke="#F7581F" stroke-width="2.5" stroke-linecap="round" stroke-linejoin="round"></path>
  <path d="M26.2589 16.2948H17.4373C16.4609 16.2948 15.6694 17.0863 15.6694 18.0627V20.7321C15.6694 21.7085 16.4609 22.5 17.4373 22.5H26.2589C27.2353 22.5 28.0268 21.7085 28.0268 20.7321V18.0627C28.0268 17.0863 27.2353 16.2948 26.2589 16.2948Z" stroke="#F7581F" stroke-width="2.5" stroke-linecap="round" stroke-linejoin="round"></path>
  <path d="M15.6694 26.8666H16.9953" stroke="#F7581F" stroke-width="2.5" stroke-linecap="round" stroke-linejoin="round"></path>
  <path d="M21.186 26.8666H22.5119" stroke="#F7581F" stroke-width="2.5" stroke-linecap="round" stroke-linejoin="round"></path>
  <path d="M26.7021 26.8666H28.028" stroke="#F7581F" stroke-width="2.5" stroke-linecap="round" stroke-linejoin="round"></path>
  <path d="M15.6694 31.2333H16.9953" stroke="#F7581F" stroke-width="2.5" stroke-linecap="round" stroke-linejoin="round"></path>
  <path d="M21.186 31.2333H22.5119" stroke="#F7581F" stroke-width="2.5" stroke-linecap="round" stroke-linejoin="round"></path>
  <path d="M26.7021 31.2333H28.028" stroke="#F7581F" stroke-width="2.5" stroke-linecap="round" stroke-linejoin="round"></path>
  <path d="M21.186 35.5999H22.5119" stroke="#F7581F" stroke-width="2.5" stroke-linecap="round" stroke-linejoin="round"></path>
  <path d="M14.7856 11.8928V4.82141H28.9108V11.8928" stroke="#F7581F" stroke-width="2.5" stroke-linecap="round" stroke-linejoin="round"></path>
</svg>
