<?xml version="1.0" encoding="UTF-8"?>
<svg xmlns="http://www.w3.org/2000/svg" width="45" height="45" viewBox="0 0 45 45" fill="none">
  <g clip-path="url(#clip0_338_2964)">
    <path d="M12.8167 31.5487C9.24298 32.4272 5.62936 30.1512 4.9306 26.4976C4.27176 23.0636 6.66753 19.7694 10.0615 18.9309C16.5102 17.3337 22.0604 13.2409 25.4943 7.53094L25.7538 7.09171C26.1731 6.39294 26.8519 5.91377 27.6305 5.71413C29.2676 5.31483 30.9047 6.29311 31.304 7.93023L37.0938 31.2293C37.4931 32.8664 36.5148 34.5035 34.8777 34.9028C34.0991 35.1024 33.2606 34.9627 32.5818 34.5634L32.442 34.4835C26.5524 30.9298 19.4849 29.8717 12.8167 31.5287V31.5487Z" stroke="#F7581F" stroke-width="2.5" stroke-linecap="round" stroke-linejoin="round"></path>
    <path d="M28.0308 12.2827L32.1635 28.9733" stroke="#F7581F" stroke-width="2.5" stroke-linecap="round" stroke-linejoin="round"></path>
    <path d="M33.96 14.1194C36.8349 13.4007 39.7497 15.1576 40.4685 18.0325C41.1872 20.9075 39.4303 23.8224 36.5554 24.5411" stroke="#F7581F" stroke-width="2.5" stroke-linecap="round" stroke-linejoin="round"></path>
    <path d="M12.8364 22.6843L16.9891 39.375" stroke="#F7581F" stroke-width="2.5" stroke-linecap="round" stroke-linejoin="round"></path>
  </g>
  <defs>
    <clipPath id="clip0_338_2964">
      <rect width="45" height="45" fill="white"></rect>
    </clipPath>
  </defs>
</svg>
