<?xml version="1.0" encoding="UTF-8"?>
<svg xmlns="http://www.w3.org/2000/svg" width="28" height="28" viewBox="0 0 28 28" fill="none">
  <g clip-path="url(#clip0_144_5867)">
    <path d="M19.4511 13.9982C19.4511 17.0273 16.9961 19.4701 13.9792 19.4701C12.4891 19.4701 11.1456 18.8716 10.1562 17.9067" stroke="#F7581F" stroke-width="2" stroke-linecap="round" stroke-linejoin="round"></path>
    <path d="M8.50781 13.9983C8.50781 10.9692 10.9628 8.52643 13.9797 8.52643C15.5064 8.52643 16.8866 9.14932 17.8759 10.1509" stroke="#F7581F" stroke-width="2" stroke-linecap="round" stroke-linejoin="round"></path>
    <path d="M17.7285 15.1708L19.4751 13.5586L21.0874 15.3051" stroke="#F7581F" stroke-width="2" stroke-linecap="round" stroke-linejoin="round"></path>
    <path d="M10.206 12.789L8.47162 14.4013L6.85938 12.6547" stroke="#F7581F" stroke-width="2" stroke-linecap="round" stroke-linejoin="round"></path>
    <path d="M21.8328 5.87596C21.674 6.81644 21.6618 7.69584 22.016 8.55082C22.5046 9.74779 23.3107 10.615 24.5199 11.0791C25.094 11.299 25.3749 11.6287 25.4604 12.2394C25.6436 13.5219 25.6069 14.7799 25.4115 16.0502C25.3504 16.4655 25.094 16.6853 24.7153 16.8319C22.9077 17.5036 21.9305 18.8227 21.6863 20.7281C21.6374 21.1434 21.7229 21.5343 21.7718 21.9373C21.8084 22.3404 21.7107 22.6579 21.4053 22.9266C20.3794 23.7938 19.219 24.4412 17.961 24.9175C17.5457 25.0763 17.1793 25.003 16.8251 24.7221C14.9686 23.2564 12.9167 23.2686 11.0235 24.7587C10.7304 24.9908 10.4372 25.0519 10.0952 24.9297C8.77613 24.49 7.60359 23.7938 6.55319 22.89C6.24784 22.6213 6.16234 22.3037 6.2112 21.9007C6.51655 19.5556 5.515 17.809 3.34092 16.8929C2.88901 16.6975 2.63251 16.4166 2.54702 15.9281C2.31495 14.5967 2.37602 13.2776 2.58366 11.9463C2.65694 11.5066 2.95008 11.299 3.34092 11.1524C4.86767 10.5783 5.79593 9.49131 6.17456 7.91571C6.32112 7.31723 6.2967 6.69431 6.19899 6.09582C6.13792 5.70498 6.24784 5.39963 6.52876 5.14314C7.55473 4.21488 8.73948 3.5309 10.0464 3.06677C10.4006 2.94463 10.7426 2.98127 11.0357 3.24997C12.6968 4.77672 15.2984 4.7645 16.9717 3.24997C17.2648 2.99348 17.6068 2.94463 17.961 3.06677C19.2679 3.5309 20.4404 4.21487 21.4908 5.1187C21.7351 5.32634 21.845 5.59506 21.8328 5.85155V5.87596Z" stroke="#F7581F" stroke-width="2" stroke-linecap="round" stroke-linejoin="round"></path>
  </g>
  <defs>
    <clipPath id="clip0_144_5867">
      <rect width="28" height="28" fill="white"></rect>
    </clipPath>
  </defs>
</svg>
