<?xml version="1.0" encoding="UTF-8"?>
<svg xmlns="http://www.w3.org/2000/svg" width="28" height="28" viewBox="0 0 28 28" fill="none">
  <path d="M22.677 5H20.4141" stroke="#F7581F" stroke-width="2" stroke-linecap="round" stroke-linejoin="round"></path>
  <path d="M21.3388 23C23.6747 23 25.5683 21.1065 25.5683 18.7707C25.5683 16.4349 23.6747 14.5414 21.3388 14.5414C19.003 14.5414 17.1094 16.4349 17.1094 18.7707C17.1094 21.1065 19.003 23 21.3388 23Z" stroke="#F7581F" stroke-width="2" stroke-linecap="round" stroke-linejoin="round"></path>
  <path d="M7.22945 23C9.56532 23 11.4589 21.1065 11.4589 18.7707C11.4589 16.4349 9.56532 14.5414 7.22945 14.5414C4.89359 14.5414 3 16.4349 3 18.7707C3 21.1065 4.89359 23 7.22945 23Z" stroke="#F7581F" stroke-width="2" stroke-linecap="round" stroke-linejoin="round"></path>
  <path d="M20.5054 14.5526L18.791 5.04511L21.0467 5.03383" stroke="#F7581F" stroke-width="2" stroke-linecap="round" stroke-linejoin="round"></path>
  <path d="M8.85352 14.8684L10.2408 12.579C10.6468 11.9023 11.3799 11.4962 12.1694 11.4962H14.9439" stroke="#F7581F" stroke-width="2" stroke-linecap="round" stroke-linejoin="round"></path>
  <path d="M19.5574 9.47745L15.5535 15.6128C15.0347 16.4135 14.1437 16.8872 13.1963 16.8872H11.4707" stroke="#F7581F" stroke-width="2" stroke-linecap="round" stroke-linejoin="round"></path>
  <path d="M10.8935 11.4398L9.76562 9.1842" stroke="#F7581F" stroke-width="2" stroke-linecap="round" stroke-linejoin="round"></path>
  <path d="M8.63867 9.1842H10.8944" stroke="#F7581F" stroke-width="2" stroke-linecap="round" stroke-linejoin="round"></path>
  <path d="M18.7885 5H16.9727" stroke="#F7581F" stroke-width="2" stroke-linecap="round" stroke-linejoin="round"></path>
</svg>
