<?xml version="1.0" encoding="UTF-8"?>
<svg xmlns="http://www.w3.org/2000/svg" width="28" height="28" viewBox="0 0 28 28" fill="none">
  <g clip-path="url(#clip0_144_6795)">
    <path d="M7.97491 19.6303C5.75128 20.1769 3.5028 18.7607 3.06801 16.4874C2.65807 14.3507 4.14877 12.301 6.2606 11.7792C10.2731 10.7854 13.7265 8.23878 15.8632 4.68592L16.0247 4.41262C16.2856 3.97783 16.7079 3.67968 17.1924 3.55546C18.2111 3.307 19.2297 3.91571 19.4782 4.93437L23.0807 19.4315C23.3291 20.4502 22.7204 21.4688 21.7018 21.7173C21.2173 21.8415 20.6956 21.7546 20.2732 21.5061L20.1862 21.4564C16.5216 19.2452 12.124 18.5868 7.97491 19.6179V19.6303Z" stroke="#F7581F" stroke-width="2" stroke-linecap="round" stroke-linejoin="round"></path>
    <path d="M17.4414 7.64258L20.0129 18.0279" stroke="#F7581F" stroke-width="2" stroke-linecap="round" stroke-linejoin="round"></path>
    <path d="M21.1309 8.78543C22.9197 8.33822 24.7334 9.4314 25.1806 11.2203C25.6278 13.0091 24.5346 14.8228 22.7458 15.27" stroke="#F7581F" stroke-width="2" stroke-linecap="round" stroke-linejoin="round"></path>
    <path d="M7.98633 14.1147L10.5702 24.5" stroke="#F7581F" stroke-width="2" stroke-linecap="round" stroke-linejoin="round"></path>
  </g>
  <defs>
    <clipPath id="clip0_144_6795">
      <rect width="28" height="28" fill="white"></rect>
    </clipPath>
  </defs>
</svg>
