<?xml version="1.0" encoding="UTF-8"?>
<svg xmlns="http://www.w3.org/2000/svg" width="28" height="28" viewBox="0 0 28 28" fill="none">
  <path d="M21.0626 5.71054H6.81579C4.98453 5.71054 3.5 7.19507 3.5 9.02633V21.1842C3.5 23.0155 4.98453 24.5 6.81579 24.5H21.0626C22.8939 24.5 24.3784 23.0155 24.3784 21.1842V9.02633C24.3784 7.19507 22.8939 5.71054 21.0626 5.71054Z" stroke="#F7581F" stroke-width="2" stroke-linecap="round" stroke-linejoin="round"></path>
  <path d="M9.36873 7.92105C8.15294 7.92105 7.1582 6.92632 7.1582 5.71053C7.1582 4.49474 8.15294 3.5 9.36873 3.5C10.5845 3.5 11.5793 4.49474 11.5793 5.71053" stroke="#F7581F" stroke-width="2" stroke-linecap="round" stroke-linejoin="round"></path>
  <path d="M18.3531 7.92105C17.1373 7.92105 16.1426 6.92632 16.1426 5.71053C16.1426 4.49474 17.1373 3.5 18.3531 3.5C19.5689 3.5 20.5636 4.49474 20.5636 5.71053" stroke="#F7581F" stroke-width="2" stroke-linecap="round" stroke-linejoin="round"></path>
  <path d="M11.4258 15.6579C11.4258 14.2653 12.5531 13.1379 13.9458 13.1379C15.3384 13.1379 16.4658 14.2653 16.4658 15.6579C16.4658 17.0505 15.3384 18.1779 13.9458 18.1779" stroke="#F7581F" stroke-width="2" stroke-linecap="round" stroke-linejoin="round"></path>
  <path d="M18.2445 11.2037C18.156 11.7231 18.145 12.1984 18.3439 12.6737C18.6092 13.3258 19.0513 13.8121 19.7145 14.0553C20.0239 14.1768 20.1787 14.3537 20.2339 14.6963C20.3334 15.3926 20.3113 16.0889 20.2118 16.7853C20.1787 17.0063 20.035 17.1389 19.836 17.2163C18.8524 17.5921 18.3108 18.3105 18.1782 19.3495C18.145 19.5816 18.2003 19.7916 18.2224 20.0126C18.2445 20.2337 18.1892 20.4105 18.0234 20.5542C17.4597 21.0295 16.8187 21.3831 16.1334 21.6484C15.9013 21.7368 15.7024 21.7037 15.5145 21.5379C14.4976 20.731 13.3703 20.7421 12.3313 21.56C12.1655 21.6816 12.0108 21.7258 11.8229 21.6595C11.1045 21.4163 10.4524 21.0405 9.88868 20.5431C9.72289 20.3995 9.67868 20.2226 9.70078 20.0016C9.86657 18.7195 9.32499 17.7579 8.13131 17.2605C7.88815 17.161 7.74446 17.0063 7.70025 16.73C7.57867 16.0005 7.61183 15.271 7.72236 14.5526C7.75552 14.3095 7.9213 14.1989 8.14236 14.1216C8.98236 13.8121 9.49078 13.2042 9.70078 12.3421C9.77815 12.0105 9.7671 11.6789 9.71184 11.3474C9.67868 11.1374 9.73394 10.9716 9.88868 10.8279C10.4524 10.3195 11.1045 9.94368 11.8229 9.68946C12.0218 9.62315 12.2097 9.64525 12.3645 9.78893C13.2708 10.6179 14.7076 10.6179 15.625 9.78893C15.7797 9.64525 15.9676 9.62315 16.1666 9.68946C16.885 9.94368 17.526 10.3195 18.1008 10.8168C18.2334 10.9274 18.2887 11.071 18.2887 11.2258L18.2445 11.2037Z" stroke="#F7581F" stroke-width="2" stroke-linecap="round" stroke-linejoin="round"></path>
</svg>
