<?xml version="1.0" encoding="UTF-8"?>
<svg xmlns="http://www.w3.org/2000/svg" width="28" height="28" viewBox="0 0 28 28" fill="none">
  <g clip-path="url(#clip0_144_6790)">
    <path d="M21.5603 14.306C21.5603 12.2547 23.2149 10.6 25.2663 10.6V8.9C25.2663 7.01867 23.7476 5.5 21.8663 5.5H5.99961C4.11828 5.5 2.59961 7.01867 2.59961 8.9V10.6C4.65094 10.6 6.30561 12.266 6.30561 14.306C6.30561 16.346 4.63961 18.012 2.59961 18.012V19.1C2.59961 20.9813 4.11828 22.5 5.99961 22.5H21.8663C23.7476 22.5 25.2663 20.9813 25.2663 19.1V18.012C23.2149 18.012 21.5603 16.346 21.5603 14.306Z" stroke="#F7581F" stroke-width="2" stroke-linecap="round" stroke-linejoin="round"></path>
    <path d="M13.9318 12.8666V15.1333C13.9318 15.1333 12.2658 15.1333 11.6651 15.1333C10.4184 15.1333 9.39844 14.1133 9.39844 12.8666C9.39844 11.62 10.4184 10.6 11.6651 10.6C12.9118 10.6 13.9318 11.62 13.9318 12.8666Z" stroke="#F7581F" stroke-width="2" stroke-linecap="round" stroke-linejoin="round"></path>
    <path d="M13.9316 12.8666V15.1333C13.9316 15.1333 15.5976 15.1333 16.1983 15.1333C17.445 15.1333 18.465 14.1133 18.465 12.8666C18.465 11.62 17.445 10.6 16.1983 10.6C14.9516 10.6 13.9316 11.62 13.9316 12.8666Z" stroke="#F7581F" stroke-width="2" stroke-linecap="round" stroke-linejoin="round"></path>
    <path d="M13.9318 15.1333C13.9318 15.1333 12.2658 15.1333 11.6651 15.1333C10.4184 15.1333 9.39844 16.1533 9.39844 17.4" stroke="#F7581F" stroke-width="2" stroke-linecap="round" stroke-linejoin="round"></path>
    <path d="M13.9316 15.1333C13.9316 15.1333 15.5976 15.1333 16.1983 15.1333C17.445 15.1333 18.465 16.1533 18.465 17.4" stroke="#F7581F" stroke-width="2" stroke-linecap="round" stroke-linejoin="round"></path>
    <path d="M9.39844 5.5V7.76667" stroke="#F7581F" stroke-width="2" stroke-linecap="round" stroke-linejoin="round"></path>
    <path d="M9.39844 20.2333V22.4999" stroke="#F7581F" stroke-width="2" stroke-linecap="round" stroke-linejoin="round"></path>
  </g>
  <defs>
    <clipPath id="clip0_144_6790">
      <rect width="28" height="28" fill="white"></rect>
    </clipPath>
  </defs>
</svg>
