<?xml version="1.0" encoding="UTF-8"?>
<svg xmlns="http://www.w3.org/2000/svg" width="28" height="28" viewBox="0 0 28 28" fill="none">
  <g clip-path="url(#clip0_146_2425)">
    <path d="M7.63672 12.2361C7.63672 11.7388 7.74329 11.2651 7.92091 10.827C8.5485 9.33497 10.1471 8.36398 11.9114 8.67185C13.3679 8.93236 14.5639 10.1165 14.8126 11.573C15.1323 13.3847 14.1021 15.0188 12.5509 15.6109C11.793 15.9069 11.2483 16.5937 11.2483 17.4108V18.2752" stroke="#F7581F" stroke-width="2" stroke-linecap="round" stroke-linejoin="round"></path>
    <ellipse cx="11.2724" cy="20.8851" rx="0.909091" ry="0.894257" fill="#F7581F"></ellipse>
    <path d="M16.9658 6.36295V8.73121C16.9658 9.38248 17.4987 9.91534 18.15 9.91534H20.5182" stroke="#F7581F" stroke-width="2" stroke-linecap="round" stroke-linejoin="round"></path>
    <path d="M4.01184 17.032V6.5524C4.01184 4.58674 5.59858 3 7.56424 3H16.6702C17.2386 3 17.7952 3.22498 18.1978 3.62759L23.3606 8.74304C23.775 9.14565 24 9.70219 24 10.2824V21.804C24 23.7697 22.4133 25.3564 20.4476 25.3564H7.55239C5.58673 25.3564 4 23.7697 4 21.804" stroke="#F7581F" stroke-width="2" stroke-linecap="round" stroke-linejoin="round"></path>
  </g>
  <defs>
    <clipPath id="clip0_146_2425">
      <rect width="28" height="28" fill="white"></rect>
    </clipPath>
  </defs>
</svg>
