<?xml version="1.0" encoding="UTF-8"?>
<svg xmlns="http://www.w3.org/2000/svg" width="28" height="28" viewBox="0 0 28 28" fill="none">
  <path d="M18 7.39999H9.2C7.98497 7.39999 7 8.38497 7 9.59999V22.8C7 24.015 7.98497 25 9.2 25H18C19.215 25 20.2 24.015 20.2 22.8V9.59999C20.2 8.38497 19.215 7.39999 18 7.39999Z" stroke="#F7581F" stroke-width="2" stroke-linecap="round" stroke-linejoin="round"></path>
  <path d="M16.339 10.139H10.85C10.2425 10.139 9.75 10.6315 9.75 11.239V12.9C9.75 13.5075 10.2425 14 10.85 14H16.339C16.9465 14 17.439 13.5075 17.439 12.9V11.239C17.439 10.6315 16.9465 10.139 16.339 10.139Z" stroke="#F7581F" stroke-width="2" stroke-linecap="round" stroke-linejoin="round"></path>
  <path d="M9.75 16.717H10.575" stroke="#F7581F" stroke-width="2" stroke-linecap="round" stroke-linejoin="round"></path>
  <path d="M13.1816 16.717H14.0066" stroke="#F7581F" stroke-width="2" stroke-linecap="round" stroke-linejoin="round"></path>
  <path d="M16.6152 16.717H17.4402" stroke="#F7581F" stroke-width="2" stroke-linecap="round" stroke-linejoin="round"></path>
  <path d="M9.75 19.434H10.575" stroke="#F7581F" stroke-width="2" stroke-linecap="round" stroke-linejoin="round"></path>
  <path d="M13.1816 19.434H14.0066" stroke="#F7581F" stroke-width="2" stroke-linecap="round" stroke-linejoin="round"></path>
  <path d="M16.6152 19.434H17.4402" stroke="#F7581F" stroke-width="2" stroke-linecap="round" stroke-linejoin="round"></path>
  <path d="M13.1816 22.151H14.0066" stroke="#F7581F" stroke-width="2" stroke-linecap="round" stroke-linejoin="round"></path>
  <path d="M9.19922 7.4V3H17.9882V7.4" stroke="#F7581F" stroke-width="2" stroke-linecap="round" stroke-linejoin="round"></path>
</svg>
