<?xml version="1.0" encoding="UTF-8"?>
<svg xmlns="http://www.w3.org/2000/svg" width="28" height="28" viewBox="0 0 28 28" fill="none">
  <path d="M13.9617 10.273C13.9617 11.9215 12.6238 13.2594 10.9754 13.2594C9.32691 13.2594 7.98902 11.9215 7.98902 10.273C7.98902 11.9215 6.65114 13.2594 5.00267 13.2594C3.66479 13.2594 2.51803 12.3754 2.14772 11.157C1.99243 10.6672 2.24329 10.1416 2.68527 9.87884L12.7911 3.82253C13.5197 3.39249 14.4156 3.39249 15.1443 3.82253L25.2501 9.87884C25.6921 10.1416 25.931 10.6672 25.7877 11.157C25.4174 12.3754 24.2706 13.2594 22.9327 13.2594C21.2842 13.2594 19.9464 11.9215 19.9464 10.273C19.9464 11.9215 18.6085 13.2594 16.96 13.2594C15.3116 13.2594 13.9737 11.9215 13.9737 10.273H13.9617Z" stroke="#F7581F" stroke-width="2" stroke-linecap="round" stroke-linejoin="round"></path>
  <path d="M22.3242 13.2952V13.7849C22.3242 17.3805 22.7304 20.9761 23.5188 24.4641" stroke="#F7581F" stroke-width="2" stroke-linecap="round" stroke-linejoin="round"></path>
  <path d="M5.60079 13.2952V13.7849C5.60079 17.3805 5.19465 20.9761 4.40625 24.4641" stroke="#F7581F" stroke-width="2" stroke-linecap="round" stroke-linejoin="round"></path>
  <path d="M3.21094 24.5H24.7126" stroke="#F7581F" stroke-width="2" stroke-linecap="round" stroke-linejoin="round"></path>
  <path d="M16.793 17.5717C16.793 17.5717 17.3663 21.6809 19.9346 24.5" stroke="#F7581F" stroke-width="2" stroke-linecap="round" stroke-linejoin="round"></path>
  <path d="M11.5719 13.2594C11.5719 13.2594 11.8228 19.8533 7.98828 24.5" stroke="#F7581F" stroke-width="2" stroke-linecap="round" stroke-linejoin="round"></path>
  <path d="M13.9609 10.2731V8.01538" stroke="#F7581F" stroke-width="2" stroke-linecap="round" stroke-linejoin="round"></path>
</svg>
