<?xml version="1.0" encoding="UTF-8"?>
<svg xmlns="http://www.w3.org/2000/svg" width="28" height="28" viewBox="0 0 28 28" fill="none">
  <g clip-path="url(#clip0_144_5872)">
    <path d="M13.1992 25C7.12148 25 2.19922 20.0777 2.19922 14C2.19922 7.92227 7.12148 3 13.1992 3C19.2769 3 24.1992 7.92227 24.1992 14" stroke="#F7581F" stroke-width="2" stroke-linecap="round" stroke-linejoin="round"></path>
    <path d="M13.4765 11.4349V14.751L11.8242 16.4034" stroke="#F7581F" stroke-width="2" stroke-linecap="round" stroke-linejoin="round"></path>
    <path d="M17.7054 9.34347C17.6129 9.88654 17.6014 10.3834 17.8094 10.8802C18.0867 11.562 18.5489 12.0704 19.2421 12.3246C19.5657 12.4517 19.7274 12.6365 19.7852 12.9947C19.8892 13.7227 19.8661 14.4506 19.7621 15.1786C19.7274 15.4097 19.5772 15.5483 19.3692 15.6292C18.3409 16.022 17.7747 16.7731 17.636 17.8592C17.6014 18.1019 17.6592 18.3214 17.6823 18.5525C17.7054 18.7836 17.6476 18.9685 17.4743 19.1187C16.885 19.6155 16.2148 19.9853 15.4984 20.2626C15.2558 20.355 15.0478 20.3203 14.8514 20.147C13.7884 19.3035 12.6098 19.3151 11.5237 20.1701C11.3503 20.2972 11.1886 20.3435 10.9921 20.2741C10.2411 20.0199 9.55937 19.6271 8.97009 19.1071C8.79677 18.9569 8.75055 18.772 8.77366 18.5409C8.94698 17.2006 8.3808 16.1954 7.1329 15.6754C6.8787 15.5714 6.72849 15.4096 6.68227 15.1208C6.55517 14.3582 6.58984 13.5956 6.70538 12.8445C6.74005 12.5903 6.91337 12.4748 7.14446 12.3939C8.02261 12.0704 8.55412 11.4349 8.77366 10.5336C8.85454 10.187 8.84299 9.84031 8.78521 9.49367C8.75055 9.27413 8.80832 9.10083 8.97009 8.95062C9.55937 8.41911 10.2411 8.02624 10.9921 7.76048C11.2001 7.69115 11.3966 7.71427 11.5583 7.86448C12.5058 8.73108 14.0079 8.73108 14.9669 7.86448C15.1287 7.71427 15.3251 7.69115 15.5331 7.76048C16.2842 8.02624 16.9543 8.4191 17.5552 8.93905C17.6938 9.0546 17.7516 9.20481 17.7516 9.36657L17.7054 9.34347Z" stroke="#F7581F" stroke-width="2" stroke-linecap="round" stroke-linejoin="round"></path>
    <path d="M25.7475 13.249L24.153 14.7164L22.6855 13.1219" stroke="#F7581F" stroke-width="2" stroke-linecap="round" stroke-linejoin="round"></path>
    <path d="M13.1992 25C16.3998 25 19.2307 23.5904 21.2875 21.4528" stroke="#F7581F" stroke-width="2" stroke-linecap="round" stroke-linejoin="round"></path>
    <circle cx="22.9224" cy="18.0713" r="0.941954" fill="#F7581F"></circle>
  </g>
  <defs>
    <clipPath id="clip0_144_5872">
      <rect width="28" height="28" fill="white"></rect>
    </clipPath>
  </defs>
</svg>
