<?xml version="1.0" encoding="UTF-8"?>
<svg xmlns="http://www.w3.org/2000/svg" width="28" height="28" viewBox="0 0 28 28" fill="none">
  <g clip-path="url(#clip0_146_2417)">
    <path d="M15.2196 18.4057C15.2196 18.4057 16.288 16.4802 18.3193 17.9478C20.3505 19.4155 22.8866 21.5289 20.4679 23.9124C18.0492 26.2958 12.4369 22.8087 8.71497 18.7932L7.24733 16.9146C3.92457 12.5704 1.4237 6.45321 4.18288 4.46895C6.94206 2.48469 8.59756 5.3378 9.70123 7.59211C10.8049 9.84642 8.72672 10.5744 8.72672 10.5744" stroke="#F7581F" stroke-width="2" stroke-linecap="round" stroke-linejoin="round"></path>
    <path d="M8.71543 10.5744C8.71543 10.5744 7.51783 12.4412 12.637 17.4899" stroke="#F7581F" stroke-width="2" stroke-linecap="round" stroke-linejoin="round"></path>
    <path d="M15.0557 7.56864C17.8148 7.33381 20.2453 9.37679 20.4801 12.136" stroke="#F7581F" stroke-width="2" stroke-linecap="round" stroke-linejoin="round"></path>
    <path d="M14.6562 3.03655C19.9163 2.57864 24.5423 6.47671 25.0002 11.7368" stroke="#F7581F" stroke-width="2" stroke-linecap="round" stroke-linejoin="round"></path>
    <ellipse cx="15.3204" cy="12.9415" rx="0.88" ry="0.90377" fill="#F7581F"></ellipse>
  </g>
  <defs>
    <clipPath id="clip0_146_2417">
      <rect width="28" height="28" fill="white"></rect>
    </clipPath>
  </defs>
</svg>
