<?xml version="1.0" encoding="UTF-8"?>
<svg xmlns="http://www.w3.org/2000/svg" width="28" height="28" viewBox="0 0 28 28" fill="none">
  <path d="M18.5984 5H16.6895" stroke="#F7581F" stroke-width="2" stroke-linecap="round" stroke-linejoin="round"></path>
  <path d="M11.9472 11.512L20.5689 14.5605L25.7252 16.3825C25.7252 16.3825 25.5942 18.3355 23.2125 20.8719C21.7954 22.3843 19.3304 22.027 18.3182 21.7651L11.459 20.0503C5.27856 18.5022 0.932015 13.9413 2.23002 8.35628C2.25384 8.27292 2.26575 8.18956 2.28957 8.1062L4.63551 8.92787L8.97014 10.4521" stroke="#F7581F" stroke-width="2" stroke-linecap="round" stroke-linejoin="round"></path>
  <path d="M2.01367 10.3092C2.01367 10.3092 4.59778 13.8579 12.231 15.799" stroke="#F7581F" stroke-width="2" stroke-linecap="round" stroke-linejoin="round"></path>
  <path d="M4.64844 8.92786L10.9956 6.96298C11.3528 6.85581 11.7458 6.87962 12.0792 7.04634L14.4847 8.22526" stroke="#F7581F" stroke-width="2" stroke-linecap="round" stroke-linejoin="round"></path>
  <path d="M14.4837 8.24908L11.9473 11.512" stroke="#F7581F" stroke-width="2" stroke-linecap="round" stroke-linejoin="round"></path>
  <path d="M14.209 9.35654L19.925 12.1431C20.2941 12.3217 20.5442 12.6909 20.5561 13.1077L20.6157 14.4652" stroke="#F7581F" stroke-width="2" stroke-linecap="round" stroke-linejoin="round"></path>
</svg>
