<?xml version="1.0" encoding="UTF-8"?>
<svg xmlns="http://www.w3.org/2000/svg" width="28" height="28" viewBox="0 0 28 28" fill="none">
  <path d="M23.6699 11.4859C23.3526 6.93809 19.7214 3.30691 15.1853 3.00137C14.8446 2.97787 14.5508 3.25991 14.5508 3.61245C14.5508 5.01087 14.5508 8.41877 14.5508 10.4753C14.5508 10.8866 14.5508 11.2509 14.5508 11.5329C14.5508 11.8737 14.8211 12.1322 15.1501 12.1322C16.7953 12.1322 21.3783 12.1322 23.0588 12.1322C23.4113 12.1322 23.6934 11.8384 23.6699 11.4976V11.4859Z" stroke="#F7581F" stroke-width="2" stroke-linecap="round" stroke-linejoin="round"></path>
  <path d="M18.581 14.6235H16.219C15.6784 14.6235 15.4081 15.2816 15.7841 15.6577L21.7421 21.6156C21.9889 21.8624 22.3884 21.8624 22.6235 21.6039C24.1394 19.8999 25.103 17.6907 25.2558 15.2581C25.2793 14.9173 24.9855 14.6235 24.6447 14.6235H21.037" stroke="#F7581F" stroke-width="2" stroke-linecap="round" stroke-linejoin="round"></path>
  <path d="M12.1538 15.54V12.8255V6.66774C12.1538 6.35046 11.8953 6.09192 11.578 6.09192C8.36984 6.09192 5.37324 7.84288 3.91606 10.6985C0.261374 17.8668 5.37324 24.9999 12.1538 24.9999C14.5511 24.9999 16.7368 24.1068 18.3938 22.6496C18.6406 22.4264 18.6406 22.0386 18.4056 21.8035L14.0458 17.4438" stroke="#F7581F" stroke-width="2" stroke-linecap="round" stroke-linejoin="round"></path>
</svg>
