<?xml version="1.0" encoding="UTF-8"?>
<svg xmlns="http://www.w3.org/2000/svg" width="28" height="28" viewBox="0 0 28 28" fill="none">
  <path d="M19.6588 6.47244C20.4821 5.64909 20.4821 4.31417 19.6588 3.49081C18.8354 2.66746 17.5005 2.66746 16.6772 3.49081L4.49034 15.6776C3.66698 16.501 3.66698 17.8359 4.49034 18.6593C5.31369 19.4826 6.64861 19.4826 7.47196 18.6593L19.6588 6.47244Z" stroke="#F7581F" stroke-width="2" stroke-linecap="round" stroke-linejoin="round"></path>
  <path d="M24.5006 11.3224C25.3239 10.499 25.3239 9.1641 24.5006 8.34074C23.6772 7.51739 22.3423 7.51739 21.519 8.34074L9.33213 20.5276C8.50878 21.3509 8.50878 22.6858 9.33213 23.5092C10.1555 24.3325 11.4904 24.3325 12.3138 23.5092L24.5006 11.3224Z" stroke="#F7581F" stroke-width="2" stroke-linecap="round" stroke-linejoin="round"></path>
  <path d="M9.73047 4.16754L10.7456 3.15242C11.1583 2.73968 11.8388 2.73968 12.2515 3.15242C12.6643 3.56516 12.6643 4.24563 12.2515 4.65837L11.2476 5.66234" stroke="#F7581F" stroke-width="2" stroke-linecap="round" stroke-linejoin="round"></path>
  <path d="M9.29688 3.73245L11.6618 6.09735" stroke="#F7581F" stroke-width="2" stroke-linecap="round" stroke-linejoin="round"></path>
  <path d="M10.4786 4.91493L3.9082 11.4965" stroke="#F7581F" stroke-width="2" stroke-linecap="round" stroke-linejoin="round"></path>
  <path d="M4.16602 10.0352L5.34846 11.2176" stroke="#F7581F" stroke-width="2" stroke-linecap="round" stroke-linejoin="round"></path>
  <path d="M22.2676 16.7729L23.2827 15.7578C23.6954 15.345 24.3759 15.345 24.7886 15.7578C25.2014 16.1705 25.2014 16.851 24.7886 17.2637L23.7847 18.2677" stroke="#F7581F" stroke-width="2" stroke-linecap="round" stroke-linejoin="round"></path>
  <path d="M21.834 16.3378L24.1989 18.7139" stroke="#F7581F" stroke-width="2" stroke-linecap="round" stroke-linejoin="round"></path>
  <path d="M23.0157 17.5314L16.4453 24.1018" stroke="#F7581F" stroke-width="2" stroke-linecap="round" stroke-linejoin="round"></path>
  <path d="M16.7012 22.6405L17.8836 23.8341" stroke="#F7581F" stroke-width="2" stroke-linecap="round" stroke-linejoin="round"></path>
</svg>
