<svg width="23" height="22" viewBox="0 0 23 22" fill="none" xmlns="http://www.w3.org/2000/svg">
<path d="M21.56 5.56C21.32 4.62 20.6 3.88 19.68 3.64C17.98 3.2 11.5 3.2 11.5 3.2C11.5 3.2 5.02 3.2 3.32 3.64C2.4 3.88 1.68 4.62 1.44 5.56C1 7.26 1 10.8 1 10.8C1 10.8 1 14.34 1.44 16.04C1.68 16.98 2.4 17.72 3.32 17.96C5.02 18.4 11.5 18.4 11.5 18.4C11.5 18.4 17.98 18.4 19.68 17.96C20.6 17.72 21.32 16.98 21.56 16.04C22 14.34 22 10.8 22 10.8C22 10.8 22 7.26 21.56 5.56Z" stroke="white" stroke-width="1.5" fill="none"/>
<path d="M9.5 14.2L15.3 10.8L9.5 7.4V14.2Z" fill="white"/>
</svg>
