<svg width="45" height="45" viewBox="0 0 45 45" fill="none" xmlns="http://www.w3.org/2000/svg">
<path d="M4.82129 27.0016V11.3726C4.82129 7.76016 7.75992 4.82153 11.3724 4.82153H33.6273C37.2398 4.82153 40.1784 7.76016 40.1784 11.3726V33.6276C40.1784 37.24 37.2398 40.1787 33.6273 40.1787H11.3724C7.75992 40.1787 4.82129 37.24 4.82129 33.6276" stroke="#F7581F" stroke-width="2.5" stroke-linecap="round" stroke-linejoin="round"/>
<path d="M11.2617 12.0278H33.7226" stroke="#F7581F" stroke-width="2.5" stroke-linecap="round" stroke-linejoin="round"/>
<path d="M11.2617 19.5149H26.2356" stroke="#F7581F" stroke-width="2.5" stroke-linecap="round" stroke-linejoin="round"/>
<path d="M11.2617 27.0015H18.7487" stroke="#F7581F" stroke-width="2.5" stroke-linecap="round" stroke-linejoin="round"/>
<path d="M26.6456 35.0688L23.576 35.4993C22.9583 35.5928 22.4155 35.0501 22.5091 34.4324L22.9396 31.3627C22.977 31.1568 23.0706 30.9697 23.2016 30.8199L31.0629 22.9586C32.1673 21.8543 33.9454 21.8543 35.031 22.9586C36.1353 24.0629 36.1353 25.8411 35.031 26.9267L27.1697 34.788C27.02 34.9378 26.8328 35.0313 26.6269 35.0501L26.6456 35.0688Z" stroke="#F7581F" stroke-width="2.5" stroke-linecap="round" stroke-linejoin="round"/>
</svg>
