<svg width="45" height="45" viewBox="0 0 45 45" fill="none" xmlns="http://www.w3.org/2000/svg">
<g clip-path="url(#clip0_338_2951)">
<path d="M34.6517 22.9919C34.6517 19.6951 37.311 17.0358 40.6078 17.0358V14.3036C40.6078 11.2801 38.1671 8.83936 35.1435 8.83936H9.64348C6.61991 8.83936 4.1792 11.2801 4.1792 14.3036V17.0358C7.47598 17.0358 10.1353 19.7133 10.1353 22.9919C10.1353 26.2704 7.45777 28.9479 4.1792 28.9479V30.6965C4.1792 33.7201 6.61991 36.1608 9.64348 36.1608H35.1435C38.1671 36.1608 40.6078 33.7201 40.6078 30.6965V28.9479C37.311 28.9479 34.6517 26.2704 34.6517 22.9919Z" stroke="#F7581F" stroke-width="2.5" stroke-linecap="round" stroke-linejoin="round"/>
<path d="M22.3931 20.6787V24.3216C22.3931 24.3216 19.7156 24.3216 18.7503 24.3216C16.7467 24.3216 15.1074 22.6823 15.1074 20.6787C15.1074 18.6752 16.7467 17.0359 18.7503 17.0359C20.7539 17.0359 22.3931 18.6752 22.3931 20.6787Z" stroke="#F7581F" stroke-width="2.5" stroke-linecap="round" stroke-linejoin="round"/>
<path d="M22.3931 20.6787V24.3216C22.3931 24.3216 25.0706 24.3216 26.0359 24.3216C28.0395 24.3216 29.6788 22.6823 29.6788 20.6787C29.6788 18.6752 28.0395 17.0359 26.0359 17.0359C24.0324 17.0359 22.3931 18.6752 22.3931 20.6787Z" stroke="#F7581F" stroke-width="2.5" stroke-linecap="round" stroke-linejoin="round"/>
<path d="M22.3931 24.3215C22.3931 24.3215 19.7156 24.3215 18.7503 24.3215C16.7467 24.3215 15.1074 25.9608 15.1074 27.9644" stroke="#F7581F" stroke-width="2.5" stroke-linecap="round" stroke-linejoin="round"/>
<path d="M22.3931 24.3215C22.3931 24.3215 25.0706 24.3215 26.0359 24.3215C28.0395 24.3215 29.6788 25.9608 29.6788 27.9644" stroke="#F7581F" stroke-width="2.5" stroke-linecap="round" stroke-linejoin="round"/>
<path d="M15.1069 8.83936V12.4822" stroke="#F7581F" stroke-width="2.5" stroke-linecap="round" stroke-linejoin="round"/>
<path d="M15.1069 32.5178V36.1607" stroke="#F7581F" stroke-width="2.5" stroke-linecap="round" stroke-linejoin="round"/>
</g>
<defs>
<clipPath id="clip0_338_2951">
<rect width="45" height="45" fill="white"/>
</clipPath>
</defs>
</svg>
