<svg width="45" height="45" viewBox="0 0 45 45" fill="none" xmlns="http://www.w3.org/2000/svg">
<path d="M7.15918 26.4064V12.844C7.15918 9.70923 9.70923 7.15918 12.844 7.15918H32.1562C35.2909 7.15918 37.841 9.70923 37.841 12.844V32.1562C37.841 35.2909 35.2909 37.841 32.1562 37.841H12.844C9.70923 37.841 7.15918 35.2909 7.15918 32.1562" stroke="#F7581F" stroke-width="2.5" stroke-linecap="round" stroke-linejoin="round"/>
<path d="M16.4494 21.1761C17.9205 21.1761 19.1131 19.9835 19.1131 18.5124C19.1131 17.0412 17.9205 15.8486 16.4494 15.8486C14.9782 15.8486 13.7856 17.0412 13.7856 18.5124C13.7856 19.9835 14.9782 21.1761 16.4494 21.1761Z" stroke="#F7581F" stroke-width="2.5" stroke-linecap="round" stroke-linejoin="round"/>
<path d="M16.4496 28.4689C19.3919 28.4689 21.7771 27.3781 21.7771 26.0325C21.7771 24.687 19.3919 23.5962 16.4496 23.5962C13.5073 23.5962 11.1221 24.687 11.1221 26.0325C11.1221 27.3781 13.5073 28.4689 16.4496 28.4689Z" stroke="#F7581F" stroke-width="2.5" stroke-linecap="round" stroke-linejoin="round"/>
<path d="M25.7568 14.2896H32.2538" stroke="#F7581F" stroke-width="2.5" stroke-linecap="round" stroke-linejoin="round"/>
<path d="M25.7568 22.4106H32.2538" stroke="#F7581F" stroke-width="2.5" stroke-linecap="round" stroke-linejoin="round"/>
<path d="M25.7568 30.5317H32.2538" stroke="#F7581F" stroke-width="2.5" stroke-linecap="round" stroke-linejoin="round"/>
</svg>
