<svg width="45" height="45" viewBox="0 0 45 45" fill="none" xmlns="http://www.w3.org/2000/svg">
<g clip-path="url(#clip0_348_2685)">
<path d="M33.4041 28.5622V8.59277C33.4041 6.67932 31.8385 5.11377 29.9251 5.11377H15.1396C11.2953 5.11377 8.18164 8.22748 8.18164 12.0718V29.4668C8.18164 33.3111 11.2953 36.4248 15.1396 36.4248H29.9251C31.8385 36.4248 33.4041 34.8592 33.4041 32.9458" stroke="#F7581F" stroke-width="2.5" stroke-linecap="round" stroke-linejoin="round"/>
<path d="M12.1128 36.4087C12.1128 38.3221 13.6783 39.8877 15.5917 39.8877H30.3773C34.2216 39.8877 37.3352 36.774 37.3352 32.9297V15.5347C37.3352 12.7863 35.7349 10.4031 33.4214 9.27246" stroke="#F7581F" stroke-width="2.5" stroke-linecap="round" stroke-linejoin="round"/>
<path d="M17.4858 20.7507C17.4858 18.9242 18.9644 17.4282 20.8082 17.4282C22.6521 17.4282 24.1306 18.9068 24.1306 20.7507C24.1306 22.5945 22.6521 24.0731 20.8082 24.0731" stroke="#F7581F" stroke-width="2.5" stroke-linecap="round" stroke-linejoin="round"/>
<path d="M26.4783 14.8704C26.3566 15.5488 26.3566 16.1924 26.6001 16.8012C26.948 17.671 27.5394 18.2972 28.4092 18.6277C28.8266 18.7843 29.018 19.0278 29.0876 19.4627C29.2267 20.3846 29.1919 21.3065 29.0528 22.2285C29.0006 22.5242 28.8266 22.6981 28.5483 22.7851C27.2437 23.2722 26.5305 24.2289 26.3566 25.6031C26.3218 25.8988 26.3914 26.1945 26.4088 26.4728C26.4435 26.7686 26.374 26.9947 26.1478 27.186C25.3999 27.8123 24.5649 28.2819 23.6604 28.6298C23.3647 28.7342 23.1038 28.6994 22.8428 28.4907C21.5034 27.4296 20.0075 27.447 18.6507 28.5081C18.442 28.682 18.2332 28.7168 17.9723 28.6298C17.0156 28.2993 16.1632 27.8123 15.4153 27.1512C15.1891 26.9599 15.1369 26.7338 15.1717 26.4381C15.3979 24.7334 14.6673 23.4809 13.1018 22.8199C12.7713 22.6807 12.5973 22.472 12.5277 22.1241C12.3712 21.1674 12.406 20.2106 12.5625 19.2539C12.6147 18.9408 12.8234 18.7843 13.1191 18.6799C14.215 18.2624 14.8934 17.4796 15.1717 16.3315C15.2761 15.8967 15.2587 15.4444 15.1717 15.0095C15.1195 14.7312 15.2065 14.5051 15.4153 14.3311C16.1632 13.6527 17.0156 13.1657 17.9549 12.8352C18.2158 12.7482 18.4593 12.783 18.6681 12.9743C19.8683 14.0702 21.747 14.0702 22.9646 12.9743C23.1733 12.783 23.4169 12.7482 23.6778 12.8525C24.6171 13.183 25.4694 13.6875 26.2348 14.3311C26.4088 14.4877 26.4957 14.679 26.4783 14.8704Z" stroke="#F7581F" stroke-width="2.5" stroke-linecap="round" stroke-linejoin="round"/>
</g>
<defs>
<clipPath id="clip0_348_2685">
<rect width="45" height="45" fill="white"/>
</clipPath>
</defs>
</svg>
