<svg width="45" height="45" viewBox="0 0 45 45" fill="none" xmlns="http://www.w3.org/2000/svg">
<path d="M33.8507 9.17761H10.9539C8.01085 9.17761 5.625 11.5635 5.625 14.5066V34.046C5.625 36.9891 8.01085 39.375 10.9539 39.375H33.8507C36.7938 39.375 39.1796 36.9891 39.1796 34.046V14.5066C39.1796 11.5635 36.7938 9.17761 33.8507 9.17761Z" stroke="#F7581F" stroke-width="2.5" stroke-linecap="round" stroke-linejoin="round"/>
<path d="M15.057 12.7303C13.1031 12.7303 11.5044 11.1316 11.5044 9.17763C11.5044 7.22368 13.1031 5.625 15.057 5.625C17.011 5.625 18.6097 7.22368 18.6097 9.17763" stroke="#F7581F" stroke-width="2.5" stroke-linecap="round" stroke-linejoin="round"/>
<path d="M29.4975 12.7303C27.5435 12.7303 25.9448 11.1316 25.9448 9.17763C25.9448 7.22368 27.5435 5.625 29.4975 5.625C31.4514 5.625 33.0501 7.22368 33.0501 9.17763" stroke="#F7581F" stroke-width="2.5" stroke-linecap="round" stroke-linejoin="round"/>
<path d="M18.3628 25.1645C18.3628 22.9264 20.1746 21.1145 22.4128 21.1145C24.651 21.1145 26.4628 22.9264 26.4628 25.1645C26.4628 27.4027 24.651 29.2145 22.4128 29.2145" stroke="#F7581F" stroke-width="2.5" stroke-linecap="round" stroke-linejoin="round"/>
<path d="M29.3231 18.0058C29.181 18.8407 29.1632 19.6045 29.4829 20.3683C29.9093 21.4164 30.6198 22.1979 31.6856 22.5887C32.1829 22.7841 32.4316 23.0683 32.5204 23.619C32.6803 24.7381 32.6448 25.8572 32.4849 26.9762C32.4316 27.3315 32.2007 27.5447 31.881 27.669C30.3 28.2729 29.4297 29.4276 29.2165 31.0973C29.1632 31.4703 29.252 31.8078 29.2875 32.1631C29.3231 32.5183 29.2343 32.8026 28.9678 33.0335C28.0619 33.7973 27.0316 34.3657 25.9303 34.792C25.5573 34.9341 25.2376 34.8808 24.9356 34.6144C23.3014 33.3177 21.4895 33.3354 19.8198 34.6499C19.5533 34.8453 19.3046 34.9164 19.0027 34.8098C17.8481 34.419 16.8 33.8151 15.8941 33.0157C15.6277 32.7848 15.5566 32.5006 15.5921 32.1453C15.8586 30.0848 14.9882 28.5394 13.0698 27.7401C12.679 27.5802 12.4481 27.3315 12.377 26.8874C12.1816 25.715 12.2349 24.5427 12.4125 23.3881C12.4658 22.9973 12.7323 22.8197 13.0875 22.6953C14.4375 22.198 15.2546 21.221 15.5921 19.8355C15.7165 19.3026 15.6987 18.7697 15.6099 18.2368C15.5566 17.8993 15.6454 17.6328 15.8941 17.4019C16.8 16.5848 17.8481 15.9808 19.0027 15.5723C19.3224 15.4657 19.6244 15.5012 19.8731 15.7322C21.3296 17.0644 23.6389 17.0644 25.1132 15.7322C25.3619 15.5012 25.6639 15.4657 25.9836 15.5723C27.1382 15.9808 28.1685 16.5848 29.0922 17.3841C29.3053 17.5618 29.3941 17.7927 29.3941 18.0414L29.3231 18.0058Z" stroke="#F7581F" stroke-width="2.5" stroke-linecap="round" stroke-linejoin="round"/>
</svg>
