<svg width="45" height="45" viewBox="0 0 45 45" fill="none" xmlns="http://www.w3.org/2000/svg">
<g clip-path="url(#clip0_338_2973)">
<path d="M24.7936 12.4216L25.3931 14.2782C25.6445 15.0711 26.3987 15.6126 27.2303 15.6126H29.1643C31.543 15.6126 32.5293 18.6489 30.6147 20.0607L29.0482 21.2017C28.3713 21.7045 28.0812 22.5748 28.352 23.3677L28.9515 25.2243C29.6864 27.487 27.0949 29.3629 25.1803 27.9705L23.6139 26.8294C22.937 26.3266 22.0087 26.3266 21.3318 26.8294L19.7653 27.9705C17.8314 29.3629 15.2593 27.487 15.9942 25.2243L16.5937 23.3677C16.8451 22.5748 16.5743 21.6852 15.8975 21.2017L14.331 20.0607C12.397 18.6682 13.4027 15.6126 15.7814 15.6126H17.7154C18.5469 15.6126 19.3012 15.0711 19.5526 14.2782L20.1521 12.4216C20.887 10.1589 24.078 10.1589 24.8129 12.4216H24.7936Z" stroke="#F7581F" stroke-width="2.5" stroke-linecap="round" stroke-linejoin="round"/>
<path d="M34.0585 34.5848H34.9094C38.1197 34.5848 40.7112 31.9933 40.7112 28.783V10.6233C40.7112 7.41301 38.1197 4.82153 34.9094 4.82153H9.981C6.77067 4.82153 4.1792 7.41301 4.1792 10.6233V28.783C4.1792 31.9933 6.77067 34.5848 9.981 34.5848H16.0149C16.9625 34.5848 17.8521 35.0876 18.3163 35.9192L19.9408 38.7427C21.0431 40.6573 23.828 40.6573 24.9303 38.7427L26.5548 35.9192C27.0383 35.0876 27.9086 34.5848 28.8562 34.5848" stroke="#F7581F" stroke-width="2.5" stroke-linecap="round" stroke-linejoin="round"/>
</g>
<defs>
<clipPath id="clip0_338_2973">
<rect width="45" height="45" fill="white"/>
</clipPath>
</defs>
</svg>
