<svg width="45" height="45" viewBox="0 0 45 45" fill="none" xmlns="http://www.w3.org/2000/svg">
<path d="M17.8765 15.6184C17.8765 13.1819 19.8489 11.2095 22.2853 11.2095C24.7218 11.2095 26.6942 13.1819 26.6942 15.6184C26.6942 18.0548 24.7218 20.0272 22.2853 20.0272" stroke="#F7581F" stroke-width="2.5" stroke-linecap="round" stroke-linejoin="round"/>
<path d="M29.8074 7.82545C29.6527 8.7343 29.6333 9.5658 29.9814 10.3973C30.4455 11.5382 31.219 12.389 32.3792 12.8144C32.9206 13.0272 33.1914 13.3365 33.288 13.936C33.4621 15.1542 33.4234 16.3725 33.2494 17.5907C33.1914 17.9775 32.94 18.2095 32.5919 18.3449C30.8709 19.0023 29.9234 20.2593 29.6913 22.077C29.6333 22.483 29.73 22.8504 29.7687 23.2372C29.8074 23.6239 29.7107 23.9333 29.4206 24.1847C28.4344 25.0162 27.3129 25.635 26.114 26.0991C25.7079 26.2538 25.3598 26.1958 25.0311 25.9057C23.2521 24.4941 21.2797 24.5134 19.462 25.9444C19.1719 26.1571 18.9012 26.2344 18.5725 26.1184C17.3155 25.693 16.1746 25.0355 15.1885 24.1654C14.8984 23.914 14.821 23.6046 14.8597 23.2178C15.1498 20.9747 14.2023 19.2924 12.1138 18.4222C11.6884 18.2482 11.437 17.9775 11.3597 17.494C11.147 16.2178 11.205 14.9415 11.3984 13.6846C11.4564 13.2592 11.7464 13.0658 12.1332 12.9305C13.6028 12.389 14.4923 11.3255 14.8597 9.81718C14.9951 9.23707 14.9757 8.65695 14.8791 8.07683C14.821 7.70943 14.9177 7.41937 15.1885 7.16798C16.1746 6.27847 17.3155 5.62101 18.5725 5.17626C18.9205 5.06023 19.2493 5.09891 19.52 5.35029C21.1056 6.80058 23.6195 6.80058 25.2244 5.35029C25.4952 5.09891 25.8239 5.06023 26.172 5.17626C27.4289 5.62101 28.5504 6.27848 29.556 7.14865C29.788 7.34202 29.8847 7.5934 29.8847 7.86412L29.8074 7.82545Z" stroke="#F7581F" stroke-width="2.5" stroke-linecap="round" stroke-linejoin="round"/>
<path d="M39.4566 31.9391C39.4566 36.3287 31.7604 39.8867 22.2852 39.8867C12.81 39.8867 5.11377 36.3287 5.11377 31.9391C5.11377 26.1187 10.1801 25.3645 17.1608 24.359C18.7852 24.1269 20.5062 34.0856 22.2852 34.0856C24.2963 34.0856 26.2493 24.1463 28.0477 24.4557C34.6997 25.5579 39.4566 26.3507 39.4566 31.9391Z" stroke="#F7581F" stroke-width="2.5" stroke-linecap="round" stroke-linejoin="round"/>
</svg>
