<svg width="45" height="45" viewBox="0 0 45 45" fill="none" xmlns="http://www.w3.org/2000/svg">
<path d="M28.9286 11.8931H14.7857C12.833 11.8931 11.25 13.4761 11.25 15.4288V36.6431C11.25 38.5958 12.833 40.1788 14.7857 40.1788H28.9286C30.8813 40.1788 32.4643 38.5958 32.4643 36.6431V15.4288C32.4643 13.4761 30.8813 11.8931 28.9286 11.8931Z" stroke="#F7581F" stroke-width="2.5" stroke-linecap="round" stroke-linejoin="round"/>
<path d="M26.2589 16.2949H17.4373C16.4609 16.2949 15.6694 17.0864 15.6694 18.0628V20.7322C15.6694 21.7086 16.4609 22.5001 17.4373 22.5001H26.2589C27.2353 22.5001 28.0268 21.7086 28.0268 20.7322V18.0628C28.0268 17.0864 27.2353 16.2949 26.2589 16.2949Z" stroke="#F7581F" stroke-width="2.5" stroke-linecap="round" stroke-linejoin="round"/>
<path d="M15.6694 26.8667H16.9953" stroke="#F7581F" stroke-width="2.5" stroke-linecap="round" stroke-linejoin="round"/>
<path d="M21.186 26.8667H22.5119" stroke="#F7581F" stroke-width="2.5" stroke-linecap="round" stroke-linejoin="round"/>
<path d="M26.7021 26.8667H28.028" stroke="#F7581F" stroke-width="2.5" stroke-linecap="round" stroke-linejoin="round"/>
<path d="M15.6694 31.2334H16.9953" stroke="#F7581F" stroke-width="2.5" stroke-linecap="round" stroke-linejoin="round"/>
<path d="M21.186 31.2334H22.5119" stroke="#F7581F" stroke-width="2.5" stroke-linecap="round" stroke-linejoin="round"/>
<path d="M26.7021 31.2334H28.028" stroke="#F7581F" stroke-width="2.5" stroke-linecap="round" stroke-linejoin="round"/>
<path d="M21.186 35.5999H22.5119" stroke="#F7581F" stroke-width="2.5" stroke-linecap="round" stroke-linejoin="round"/>
<path d="M14.7856 11.893V4.82153H28.9108V11.893" stroke="#F7581F" stroke-width="2.5" stroke-linecap="round" stroke-linejoin="round"/>
</svg>
