<svg width="45" height="45" viewBox="0 0 45 45" fill="none" xmlns="http://www.w3.org/2000/svg">
<path d="M11.25 30.4024V9.24118C11.25 6.80153 13.23 4.82153 15.6696 4.82153H28.0447C30.4843 4.82153 32.4643 6.80153 32.4643 9.24118V35.759C32.4643 38.1987 30.4843 40.1787 28.0447 40.1787H15.6696C13.23 40.1787 11.25 38.1987 11.25 35.759V34.6276" stroke="#F7581F" stroke-width="2.5" stroke-linecap="round" stroke-linejoin="round"/>
<path d="M18.3213 36.6431H25.3927" stroke="#F7581F" stroke-width="2.5" stroke-linecap="round" stroke-linejoin="round"/>
<path d="M18.3213 9.06445H21.857" stroke="#F7581F" stroke-width="2.5" stroke-linecap="round" stroke-linejoin="round"/>
<ellipse cx="1.41429" cy="1.41429" rx="1.41429" ry="1.41429" transform="matrix(-1 0 0 1 26.8071 7.65015)" fill="#F7581F"/>
<path d="M18.8174 22.5001L20.8327 24.5331L24.8988 20.467" stroke="#F7581F" stroke-width="2.5" stroke-linecap="round" stroke-linejoin="round"/>
<path d="M28.8762 22.5001C28.8762 26.3717 25.7294 29.5185 21.8578 29.5185C19.6303 29.5185 17.6503 28.4754 16.3597 26.8667C15.4051 25.6645 14.8394 24.1442 14.8394 22.5001C14.8394 18.6285 17.9861 15.4817 21.8578 15.4817C25.7294 15.4817 28.8762 18.6285 28.8762 22.5001Z" stroke="#F7581F" stroke-width="2.5" stroke-linecap="round" stroke-linejoin="round"/>
</svg>
